<svg xmlns="http://www.w3.org/2000/svg" xmlns:xlink="http://www.w3.org/1999/xlink" version="1.1" id="Layer_1" x="0px" y="0px" width="100%" viewBox="0 0 1080 1080" enable-background="new 0 0 1080 1080" xml:space="preserve">
<path fill="none" opacity="1.000000" stroke="#ffffff" stroke-linecap="round" stroke-linejoin="round" stroke-width="3.000000" d=" M944.000000,1041.000000   C937.739136,1042.217407 932.061707,1045.194336 925.994873,1046.982544   C915.340332,1050.123047 904.386169,1051.959595 893.485657,1053.920166   C882.217041,1055.946655 870.855347,1057.512451 859.489258,1058.912842   C854.866760,1059.482300 850.159973,1059.471436 845.487793,1059.848877   C833.349976,1060.829346 821.169434,1061.556763 809.020081,1062.319580   C795.813171,1063.148804 782.642517,1063.133789 769.504333,1062.818604   C752.323303,1062.406738 740.616028,1053.333862 735.045776,1036.984375   C730.728760,1024.313599 728.014526,1011.233032 725.978699,998.003296   C724.078430,985.654602 721.493103,973.385986 720.204102,960.978821   C719.512207,954.319153 718.624939,947.649658 717.800354,941.024841   C716.513916,930.688965 716.072998,920.250610 714.107483,909.979431   C713.393555,906.248901 713.603149,902.334717 713.137695,898.483337   C711.753540,887.029785 711.222412,875.475098 709.937500,864.007019   C708.650940,852.524780 708.034180,840.987122 706.839233,829.516724   C705.623169,817.844055 705.017334,806.099976 703.115662,794.481079   C702.367371,789.909180 702.580688,785.164917 702.143677,780.486572   C701.085754,769.160645 700.381226,757.806580 699.205627,746.478638   C698.692627,741.536072 698.376465,736.485046 697.908325,731.508606   C696.935974,721.173401 696.637878,710.783203 695.104553,700.484436   C694.445129,696.055298 694.495056,691.487244 694.166382,686.987854   C693.444824,677.110840 692.004822,667.326904 691.140991,657.487610   C690.504089,650.233093 689.670959,643.064392 687.977356,636.005432   C686.002808,627.775696 680.052734,625.604736 672.043945,628.138916   C669.612854,628.908142 667.960083,631.005493 667.851990,634.495422   C667.458191,647.202698 668.615906,659.848206 669.193665,672.491150   C669.787659,685.489990 670.312866,698.516418 671.246521,711.482239   C671.933044,721.016296 671.212769,730.538574 672.081421,739.992493   C674.010376,760.987061 672.608765,782.000977 672.930969,803.001038   C673.102295,814.165161 672.152527,825.331177 671.770752,836.492126   C671.457703,845.641174 671.122620,854.893311 669.907532,863.987671   C667.447449,882.400024 664.895142,900.776062 661.215515,919.043396   C654.688171,951.447632 645.771240,983.013855 633.104065,1013.543152   C632.370544,1015.310974 632.277344,1017.395691 630.984619,1018.987488   C630.766968,1019.255554 630.348206,1019.360229 629.795593,1019.665588   C627.644348,1016.922852 627.477661,1013.731140 627.503784,1010.500061   C627.662903,990.833313 627.355286,971.148071 628.120361,951.504700   C629.087769,926.667175 628.253113,901.812866 629.168030,877.006226   C630.207214,848.829651 629.797791,820.667786 629.975586,792.499817   C630.101807,772.500671 629.977478,752.499939 630.034180,732.500122   C630.039917,730.458679 629.492981,728.698853 628.500000,727.000000  "/>
<path fill="none" opacity="1.000000" stroke="#ffffff" stroke-linecap="round" stroke-linejoin="round" stroke-width="3.000000" d=" M917.000000,600.500000   C915.814697,601.216003 916.014221,602.368530 915.986755,603.499695   C915.817139,610.487305 913.231506,614.324890 906.487000,614.824585   C898.802124,615.393921 891.105408,616.676392 883.497925,616.735657   C871.497375,616.829224 859.409668,616.075134 847.500854,613.994934   C843.735596,613.337219 840.192383,614.980469 836.500000,614.993103   C829.500061,615.016968 822.482544,615.313904 815.504150,614.925415   C805.378418,614.361694 803.341736,618.952271 801.098572,625.036377   C795.319824,640.710266 789.617004,656.420471 784.812744,672.443848   C784.275452,674.235840 783.814392,676.247192 783.200134,678.067566   C781.635925,682.703247 783.682617,685.952332 788.505920,687.986023   C799.455933,692.603088 811.067627,695.046936 822.518921,697.924561   C836.945129,701.549805 851.396973,705.071045 865.969299,708.145569   C881.429871,711.407349 896.879089,714.627991 912.500610,716.995789   C925.830872,719.016235 939.120178,721.418823 952.510559,722.905151   C974.422485,725.337341 996.442078,727.181396 1018.490295,725.840088   C1029.918823,725.144775 1036.329590,720.935425 1038.227539,707.031067   C1039.232422,699.669861 1039.936646,692.066467 1039.529297,685.027222   C1038.786499,672.188049 1040.530151,659.237793 1038.020630,646.495972   C1037.862549,645.693726 1037.945435,644.829163 1038.008301,644.000610   C1038.731689,634.462097 1037.097900,625.010925 1036.801025,615.506226   C1036.515137,606.350037 1035.363647,597.197449 1034.894165,588.005432   C1034.347900,577.315552 1033.439697,566.602173 1031.885864,556.016785   C1030.053223,543.532288 1028.822510,530.972961 1027.244507,518.469116   C1025.644287,505.787750 1023.749634,493.137970 1021.820618,480.527435   C1018.211548,456.934296 1013.670044,433.405060 1006.755249,410.574127   C1000.942322,391.381134 988.868042,376.604462 970.569397,366.869598   C943.111633,352.262177 914.477600,340.689667 885.051392,330.846283   C883.461853,330.314606 882.015625,330.262939 880.500000,330.000000  "/>
<path fill="none" opacity="1.000000" stroke="#ffffff" stroke-linecap="round" stroke-linejoin="round" stroke-width="3.000000" d=" M616.500000,548.500000   C614.736755,545.811035 617.012695,543.902161 618.092224,542.053894   C620.153137,538.525269 622.451843,535.190674 623.012329,531.001648   C623.718689,525.722290 620.552246,522.745605 615.499329,523.997192   C606.924927,526.120972 600.239929,531.335754 595.108154,538.082275   C586.735962,549.088928 582.482117,561.925232 579.860229,575.472961   C578.571594,582.131470 578.322021,588.868896 577.133301,595.523804   C576.074280,601.452576 578.660828,607.440491 578.020752,613.502197   C577.879333,614.841431 578.000000,616.208313 578.000000,618.010559   C574.506470,617.782776 571.463135,615.727173 568.471680,617.962036   C566.223083,619.641968 564.020874,621.355774 563.038147,624.014099   C560.953247,629.653503 560.309998,635.605347 561.082153,641.489197   C562.538635,652.587708 565.185547,663.453918 569.008972,673.996765   C575.690857,692.421753 583.570740,710.241943 595.488892,726.008362   C597.219360,728.297546 599.229187,730.233826 601.470398,732.036804   C607.280334,736.710815 613.738953,737.209290 619.923889,733.859436   C626.101257,730.513672 630.143616,725.154663 630.035339,717.499512   C629.987915,714.152100 629.854919,710.837341 630.836914,707.452698   C631.455444,705.320801 632.120117,702.381165 629.501099,700.498535   C628.565918,699.826355 628.994202,698.826233 629.026245,698.001038   C629.468018,686.642212 627.242188,675.366821 627.992676,663.999512   C628.300598,659.335754 627.031860,654.839417 627.721069,649.960571   C628.828552,642.121277 631.512146,635.534729 637.005676,630.005615   C644.149109,622.815857 651.542847,615.859497 658.400879,608.408752   C661.300903,605.258057 661.833923,600.599121 662.936096,596.482910   C664.210632,591.723083 665.154480,586.857605 665.920532,581.987488   C666.208252,580.157837 667.787903,579.753296 668.538513,578.360840   C670.171997,580.533813 671.088013,582.847046 670.996155,585.499878   C670.370850,603.556396 678.905823,616.731750 692.992065,627.010864   C702.450134,633.912659 713.041809,638.366211 724.522034,639.827026   C733.690857,640.993652 741.602783,637.263733 746.962524,629.474243   C755.906006,616.476501 761.015076,601.931396 764.110779,586.522278   C765.125183,581.473083 764.776184,576.506775 764.983276,571.499329   C765.029907,570.370605 764.814697,569.216003 766.000000,568.500000  "/>
<path fill="none" opacity="1.000000" stroke="#ffffff" stroke-linecap="round" stroke-linejoin="round" stroke-width="3.000000" d=" M926.000000,728.000000   C922.876465,732.672424 923.755432,738.018005 924.252808,742.974609   C924.500000,745.438171 924.947937,747.984192 924.970154,750.500244   C925.073975,762.248901 926.427429,773.880066 927.956543,785.505737   C928.258240,787.799316 928.000000,790.166687 928.000000,792.779358   C916.195190,794.515381 904.297913,795.976807 892.510864,798.061523   C871.388000,801.797546 850.080322,804.889648 830.010254,813.025208   C824.241089,815.363831 818.372864,817.753235 814.530762,823.022400   C810.483521,828.572754 811.459290,832.380005 815.504578,836.995972   C819.469604,841.520264 825.036011,843.086853 830.525513,843.805298   C834.625610,844.341980 838.721802,845.340393 843.004761,845.077332   C855.312683,844.321167 867.431824,842.659790 879.537048,840.180908   C888.697754,838.304993 897.555664,835.758972 905.960938,831.914551   C920.110962,825.442627 928.914673,815.088867 928.012085,798.499329   C927.921631,796.837585 928.000000,795.166687 928.000000,793.500000   C933.188477,792.985535 938.630493,796.204224 938.827332,801.007080   C939.071899,806.977600 940.728394,812.737305 939.366272,819.078674   C938.160706,824.691589 938.321411,830.983459 939.826233,837.043152   C940.761902,840.810791 940.050110,845.000732 939.991455,848.999878   C939.724548,867.178223 940.834595,885.338318 941.328064,903.491089   C941.645142,915.155823 940.974548,926.893982 942.152344,938.484497   C943.408203,950.843384 941.952332,963.234680 943.184143,975.481506   C944.445007,988.018188 943.131165,1000.534973 944.140381,1012.988647   C944.763000,1020.671143 944.930725,1028.321289 945.042542,1035.999390   C945.049866,1036.504150 945.666687,1037.000000 946.000000,1037.500000  "/>
<path fill="none" opacity="1.000000" stroke="#ffffff" stroke-linecap="round" stroke-linejoin="round" stroke-width="3.000000" d=" M941.000000,816.500000   C944.609863,818.187988 943.484253,822.121155 943.718140,824.527405   C944.972412,837.433777 947.557434,850.134583 949.081299,862.990356   C950.351318,873.704041 952.452881,884.316528 953.955444,895.006287   C954.864258,901.472229 955.189819,908.018738 956.034424,914.495483   C957.232117,923.679871 959.159668,932.796692 959.843872,942.011597   C960.390076,949.368774 961.539490,956.644348 962.032959,963.997803   C962.893555,976.822815 964.689392,989.616028 963.933594,1002.496094   C963.471741,1010.367676 962.472778,1018.249329 958.969788,1025.485352   C956.565552,1030.451660 953.067566,1034.551147 947.984314,1036.966919   C945.275452,1038.254395 944.471741,1039.814209 944.881226,1043.015137   C946.472351,1055.452148 945.975098,1067.991821 946.000000,1080.500000  "/>
<path fill="none" opacity="1.000000" stroke="#ffffff" stroke-linecap="round" stroke-linejoin="round" stroke-width="3.000000" d=" M726.500000,128.000000   C734.630493,125.398949 743.063049,124.331993 751.502747,124.098213   C764.825806,123.729164 778.179565,124.354774 791.495300,123.870384   C799.827332,123.567291 808.215881,123.497925 816.508911,122.051117   C824.870789,120.592308 832.575623,126.094582 835.909485,136.030365   C837.186035,139.834839 838.213745,143.846725 838.005615,148.000290   C837.367676,160.734024 838.753845,173.436066 840.260986,185.968613   C842.305664,202.971573 843.166809,219.924759 843.025391,237.000214   C842.855347,257.533997 836.226318,275.878326 824.459534,292.471283   C820.906189,297.482117 815.990540,301.627258 812.730347,306.649536   C805.909668,317.156433 795.025024,316.843170 784.976379,318.883728   C781.341736,319.621826 777.711365,319.755188 774.442017,321.912079   C773.127502,322.779266 771.177490,322.741791 769.497620,322.983612   C766.492615,323.416107 763.707825,324.366730 761.511292,326.511536   C752.151428,335.651031 742.749207,344.749786 733.531799,354.031586   C728.076172,359.525330 727.593384,362.137878 731.050964,368.472168   C736.344543,378.169983 744.576111,384.335968 754.965576,388.095062   C761.682800,390.525421 765.924133,387.906586 770.052734,383.044769   C775.766418,376.316254 779.870728,367.985077 786.258362,362.289795   C796.601929,353.067383 800.301819,340.083099 808.040161,329.529419   C809.993469,326.865479 809.165222,323.786072 809.807617,320.956329   C811.166077,314.971710 814.740295,310.834747 819.019653,307.022034   C821.126526,305.144867 823.640198,305.714935 825.994141,306.517181   C836.971680,310.258514 845.726196,317.436310 852.805481,326.157867   C857.767151,332.270569 856.341858,340.565979 855.877502,347.992340   C855.458313,354.695312 853.930847,361.323975 853.024780,368.003357   C852.435059,372.350494 851.349609,376.570129 849.442383,380.471832   C847.278625,384.898315 841.992065,386.661652 836.985718,385.565063   C833.251648,384.747223 829.500549,384.060272 826.017151,382.462555   C824.743774,381.878479 823.530090,381.546722 822.538391,382.538391   C821.546753,383.530029 821.894653,384.739197 822.463684,386.016174   C825.046509,391.812592 827.074463,397.901123 830.122192,403.432678   C833.048706,408.744202 832.679565,413.653625 829.943542,418.467926   C824.319946,428.363281 816.921753,437.027802 809.965271,445.972992   C792.403687,468.554688 774.582764,490.934967 757.054688,513.542480   C752.248230,519.741760 748.634644,526.601379 749.944824,535.008606   C750.169006,536.447693 749.666687,538.000000 749.500061,539.500000  "/>
<path fill="none" opacity="1.000000" stroke="#ffffff" stroke-linecap="round" stroke-linejoin="round" stroke-width="3.000000" d=" M690.500000,245.500000   C689.666687,246.333328 688.797363,247.133987 688.005920,248.005386   C683.407715,253.068298 680.453369,253.335739 675.006836,248.991409   C667.126160,242.705460 662.923157,233.827316 659.144348,224.938644   C655.990112,217.519501 653.202393,209.828964 652.907166,201.503296   C652.807312,198.688400 653.309753,195.825089 654.203857,193.581223   C656.874634,186.878265 662.555054,184.241608 669.433655,189.585373   C674.748413,193.714249 677.393677,199.897110 680.046570,205.979691   C682.884827,212.487396 684.806030,219.284576 686.999451,226.000168   C687.659119,228.019852 687.725647,230.172714 689.942261,231.590286   C691.772705,232.760895 691.534851,235.433838 690.876343,236.946136   C688.500427,242.402145 691.825562,247.015518 692.484558,252.002045   C693.278259,258.007996 694.221558,264.016235 695.208252,269.965454   C696.675354,278.811035 695.367981,287.681793 696.762024,296.537476   C697.755615,302.849548 695.349121,309.489105 696.060059,315.993439   C697.027588,324.845856 695.809753,333.203461 692.704834,341.575958   C691.576416,344.618652 693.104858,348.357910 692.184509,352.046051   C689.985046,360.859772 688.322632,369.748901 687.684753,378.978210   C686.832153,391.313812 684.698303,403.578583 683.851929,415.989899   C683.124084,426.663818 681.882996,437.323364 680.862305,447.986816   C679.793701,459.151123 678.987610,470.335114 677.899841,481.490234   C676.778931,492.984497 675.950012,504.498383 674.876160,515.988403   C673.910278,526.323120 672.967285,536.665161 671.903687,546.990051   C671.216919,553.657104 669.423889,560.215149 670.247498,567.056641   C674.584839,566.938660 674.242188,563.039856 674.818909,560.950012   C678.001343,549.418701 683.128113,538.838013 688.951233,528.472595   C695.385925,517.018738 698.831604,504.621368 700.071106,491.506714   C701.050903,481.139954 703.136230,470.863617 703.805481,460.487457   C704.149231,455.156982 704.717346,449.827576 705.130371,444.510132   C705.843689,435.326965 706.422485,426.126923 707.780029,416.967407   C708.611633,411.356537 708.842529,405.566650 710.083435,400.018646   C712.629272,388.636658 720.517822,381.940125 731.047363,378.130981   C732.397705,377.642487 733.498352,376.551147 735.000000,376.500000  "/>
<path fill="none" opacity="1.000000" stroke="#ffffff" stroke-linecap="round" stroke-linejoin="round" stroke-width="3.000000" d=" M791.000000,359.500000   C791.924805,363.565369 789.094849,366.412170 787.426941,369.460022   C763.991943,412.282104 738.719910,454.024017 713.010193,495.506317   C710.767090,499.125610 709.127075,503.224762 706.408691,506.422363   C699.784546,514.214355 701.705322,522.041382 705.526306,529.987366   C709.571594,538.399719 715.594360,545.346802 722.561340,551.429749   C724.506653,553.128174 726.903259,555.071045 730.224365,553.387207   C727.855347,546.421082 722.618835,541.321716 718.518494,535.487000   C714.593567,529.902161 709.971985,524.773438 708.895386,517.515503   C708.154480,512.521057 710.912964,506.922028 715.500305,506.001495   C717.139099,505.672607 718.490112,506.675140 719.437927,507.566040   C722.439331,510.387238 725.322754,513.369202 727.969055,516.525940   C734.420471,524.222046 741.093750,531.706604 747.964050,539.033752   C755.128967,546.675049 761.353882,555.109741 764.789734,565.072510   C765.709106,567.738403 768.381348,568.176270 768.988464,570.502991   C771.040405,578.367371 772.764954,586.023071 772.276245,594.515869   C771.051575,615.795227 760.505371,633.768005 753.479309,652.992432   C749.185364,664.741516 752.419495,670.934082 761.560791,677.920471   C767.254333,682.271851 772.393250,680.643066 775.977234,673.987732   C779.358887,667.707947 780.967651,660.761169 782.958191,653.987732   C786.723938,641.173584 789.608826,628.117371 791.802734,614.967102   C792.564209,610.402405 792.816345,605.646973 793.500000,601.000000  "/>
<path fill="none" opacity="1.000000" stroke="#ffffff" stroke-linecap="round" stroke-linejoin="round" stroke-width="3.000000" d=" M860.500000,113.000000   C848.989441,100.357002 838.553772,86.722076 825.033447,75.957962   C807.918091,62.331676 788.618958,54.310322 767.029541,50.817562   C755.658936,48.978016 744.329834,48.594265 733.008545,49.168530   C721.352661,49.759773 710.212524,52.970356 700.488770,59.984421   C693.751404,64.844315 691.597534,68.809235 696.505249,78.997459   C698.028564,82.159691 700.228577,84.827209 702.425659,87.559761   C705.703796,91.636803 708.553772,95.894623 710.862488,100.830444   C713.735107,106.971863 719.076721,112.053627 724.875732,116.061203   C726.661194,114.998627 726.475952,112.786980 725.890564,112.092186   C721.559631,106.951660 717.594849,101.459366 712.455750,97.051613   C712.111877,96.756691 711.002808,96.677994 710.500000,97.500000  "/>
<path fill="none" opacity="1.000000" stroke="#ffffff" stroke-linecap="round" stroke-linejoin="round" stroke-width="3.000000" d=" M695.000000,77.500008   C694.666687,77.666672 694.239868,78.060349 694.013550,77.967155   C686.110657,74.714127 681.637634,79.515244 677.507935,85.005959   C669.380676,95.811371 662.511353,107.236084 658.928772,120.480728   C656.834412,128.223709 655.279114,135.940063 654.893250,143.994888   C654.495056,152.306717 654.551147,160.291641 659.478149,167.514908   C663.772278,173.810349 669.253906,179.092819 674.018311,184.985184   C680.813782,193.389542 687.803101,201.689301 690.459045,212.510056   C691.999939,218.788193 693.386719,225.166672 690.500000,231.500000  "/>
<path fill="none" opacity="1.000000" stroke="#ffffff" stroke-linecap="round" stroke-linejoin="round" stroke-width="3.000000" d=" M644.500000,377.500000   C643.000000,376.749298 641.433594,376.641357 640.010376,377.516876   C627.460571,385.236877 614.240723,392.082031 604.043396,403.040405   C595.959717,411.727295 591.554443,422.202362 589.936462,433.991272   C588.795349,442.305450 588.253052,450.615845 587.892822,458.995392   C587.283020,473.178833 586.466675,487.389160 584.781982,501.473907   C584.056885,507.535583 584.512817,513.512024 583.960510,519.496338   C583.824402,520.971069 584.641602,521.679199 585.500000,522.500000  "/>
<path fill="none" opacity="1.000000" stroke="#ffffff" stroke-linecap="round" stroke-linejoin="round" stroke-width="3.000000" d=" M692.000000,342.500031   C690.666687,343.333344 688.930115,343.869232 688.062195,345.045929   C679.044250,357.271942 665.006531,363.013428 653.401306,371.870728   C650.066101,374.416229 646.732605,376.612488 643.810852,379.828125   C640.275146,383.719513 635.295288,386.282898 631.009338,389.512390   C625.241821,393.858154 619.349182,397.975189 614.421387,403.428955   C607.261169,411.353241 604.471375,420.889679 603.043274,431.006104   C601.517822,441.812317 599.953308,452.636566 599.092896,463.507355   C597.927979,478.225922 595.310608,492.652100 592.034485,507.007874   C590.547180,513.525208 588.240479,519.676575 585.000000,525.500000  "/>
<path fill="none" opacity="1.000000" stroke="#ffffff" stroke-linecap="round" stroke-linejoin="round" stroke-width="3.000000" d=" M708.500000,174.500000   C715.662170,175.468796 718.601990,170.563705 716.569763,161.983475   C714.741699,154.264969 714.837891,146.606781 717.866821,138.947342   C719.598511,134.568466 723.764587,132.678329 726.478149,128.536118   C721.285583,127.189758 717.014587,128.745438 713.023315,131.040543   C706.700806,134.676178 701.580383,139.189941 701.937988,147.502670   C702.073120,150.645920 703.739929,152.823639 705.525208,154.979095   C710.106995,160.510605 712.026611,166.127121 708.233582,173.126587   C707.429077,174.611206 706.683899,175.897491 705.495850,176.995514   C697.749329,184.155182 696.003113,192.613022 697.755676,203.041061   C699.760437,214.969910 702.881653,226.640274 704.825073,238.528595   C706.024231,245.863678 710.931335,251.193680 713.197021,257.933777   C716.421875,267.527679 720.994995,276.668823 725.012878,285.994446   C725.246765,286.537323 725.971985,287.010468 725.955261,287.498474   C725.565918,298.867767 735.391296,303.148956 741.500000,310.000000  "/>
<path fill="none" opacity="1.000000" stroke="#ffffff" stroke-linecap="round" stroke-linejoin="round" stroke-width="3.000000" d=" M659.000000,609.000000   C661.497253,612.166321 658.732788,614.722351 657.990784,617.497559   C652.238586,639.012329 643.499817,659.565063 637.510925,681.003052   C635.607483,687.816772 633.833313,694.666687 632.000000,701.500000  "/>
<path fill="none" opacity="1.000000" stroke="#ffffff" stroke-linecap="round" stroke-linejoin="round" stroke-width="3.000000" d=" M887.500000,617.500000   C888.726990,619.667297 891.390991,619.735474 893.008606,619.807617   C903.031677,620.254456 912.931396,622.359863 923.000061,622.000977   C927.598816,621.837097 927.233276,621.926514 926.084473,616.980347   C924.297241,609.286011 919.833191,602.924072 916.672363,595.922180   C913.595825,589.107178 911.245117,581.978760 911.780579,573.985291   C912.192139,567.842285 909.608765,561.755493 908.848206,555.518494   C907.782471,546.778564 905.700073,538.160095 903.991516,529.501648   C901.860535,518.702942 899.790833,507.872009 895.933411,497.524811   C894.754089,494.361328 893.504517,490.409882 888.265137,492.457611   C884.259521,504.000000 885.804565,515.474670 888.474060,527.005981   C892.349670,543.747620 899.674988,559.113098 906.932434,574.531799   C907.922302,576.634705 908.982117,578.380981 911.000000,579.500000  "/>
<path fill="none" opacity="1.000000" stroke="#ffffff" stroke-linecap="round" stroke-linejoin="round" stroke-width="3.000000" d=" M667.000000,567.000000   C665.315308,564.226257 664.988159,561.190918 664.963318,558.000305   C664.899719,549.848450 663.108704,541.977600 659.939636,534.525696   C656.278259,525.916260 648.785095,523.736206 641.048767,529.070740   C636.285278,532.355286 631.702393,536.028442 627.564880,540.066528   C620.057068,547.393738 610.606201,552.939819 606.000000,563.000000  "/>
<path fill="none" opacity="1.000000" stroke="#ffffff" stroke-linecap="round" stroke-linejoin="round" stroke-width="3.000000" d=" M926.500000,724.500000   C926.333313,725.333313 925.756287,726.680237 926.060913,726.923767   C931.480713,731.254761 930.822937,737.772827 931.914307,743.516296   C934.238098,755.745422 935.929504,768.078186 937.103760,780.490173   C937.529602,784.991333 938.954834,789.404419 939.020142,793.999695   C939.034790,795.029114 938.937622,795.908386 938.000000,796.500000  "/>
<path fill="none" opacity="1.000000" stroke="#ffffff" stroke-linecap="round" stroke-linejoin="round" stroke-width="3.000000" d=" M690.000000,389.000000   C696.668945,385.188293 702.075806,379.640839 708.515381,375.524048   C711.213684,373.799011 713.677246,371.760712 716.976562,370.909210   C721.169434,369.827148 722.477417,366.352631 721.547180,361.989929   C719.235291,351.147858 712.786865,342.364838 707.481995,333.010193   C705.932251,330.277252 704.016296,327.746796 702.541138,324.978088   C700.977966,322.044220 699.350220,322.831116 697.500000,324.500000  "/>
<path fill="none" opacity="1.000000" stroke="#ffffff" stroke-linecap="round" stroke-linejoin="round" stroke-width="3.000000" d=" M841.000000,613.000000   C838.718811,609.195923 834.484253,610.783997 831.452637,610.291626   C820.191101,608.462524 809.292053,605.546570 798.489319,602.032898   C794.324768,600.678345 790.632141,599.107727 788.865295,594.552246   C788.438110,593.450806 786.333313,593.000000 785.000000,592.250000  "/>
<path fill="none" opacity="1.000000" stroke="#ffffff" stroke-linecap="round" stroke-linejoin="round" stroke-width="3.000000" d=" M707.000000,249.500000   C705.531433,251.833328 706.638184,254.502792 707.192993,256.444855   C710.527832,268.116730 714.082336,279.792297 721.079590,289.945129   C722.021973,291.312561 723.065857,293.401184 725.500000,293.000000  "/>
<path fill="none" opacity="1.000000" stroke="#ffffff" stroke-linecap="round" stroke-linejoin="round" stroke-width="3.000000" d=" M748.000000,386.500000   C744.944153,395.143799 739.324463,397.948059 729.537598,394.880066   C725.254028,393.537262 720.743591,392.063110 717.500000,388.500000  "/>
<path fill="none" opacity="1.000000" stroke="#ffffff" stroke-linecap="round" stroke-linejoin="round" stroke-width="3.000000" d=" M863.500000,113.000000   C858.727051,112.904518 854.988586,116.156563 850.501709,117.008911   C843.661926,118.308228 836.845459,119.735321 829.990662,120.947174   C828.456177,121.218460 827.120239,121.377060 826.500000,123.000000  "/>
<path fill="none" opacity="1.000000" stroke="#ffffff" stroke-linecap="round" stroke-linejoin="round" stroke-width="3.000000" d=" M755.500000,315.500000   C751.936340,311.832092 747.570679,310.249634 742.346863,310.209808   C745.455811,316.100433 749.536804,317.983978 755.500000,316.500000   C760.916809,315.152039 773.138611,317.188965 776.500000,320.000000  "/>
<path fill="none" opacity="1.000000" stroke="#ffffff" stroke-linecap="round" stroke-linejoin="round" stroke-width="3.000000" d=" M816.500000,311.000031   C817.336243,311.662933 818.172546,312.325836 819.203491,313.143036   C816.640686,317.627930 815.369812,323.039612 810.000000,325.500000  "/>
<path fill="none" opacity="1.000000" stroke="#ffffff" stroke-linecap="round" stroke-linejoin="round" stroke-width="3.000000" d=" M718.000000,372.000000   C718.311768,375.529022 715.222961,378.303375 715.900940,382.018097   C716.159973,383.437866 716.339355,384.616455 717.500000,385.500000  "/>
<path fill="none" opacity="1.000000" stroke="#ffffff" stroke-linecap="round" stroke-linejoin="round" stroke-width="3.000000" d=" M684.000000,352.000000   C687.146423,353.741791 686.503235,357.852142 689.000000,360.000000  "/>
<path fill="none" opacity="1.000000" stroke="#ffffff" stroke-linecap="round" stroke-linejoin="round" stroke-width="3.000000" d=" M581.500000,620.000000   C577.494263,622.244080 580.636719,625.703369 581.265686,627.401611   C586.612427,641.837891 596.711182,651.370911 611.989563,655.043335   C616.209229,656.057617 620.176331,657.042542 623.050171,652.669739   C622.173279,648.838501 619.478333,646.504639 617.005737,643.994385   C607.758545,634.606323 596.988220,627.310242 585.489075,621.019958   C584.431702,620.441528 583.402588,619.507507 582.000000,620.000000  "/>
</svg>