<svg xmlns="http://www.w3.org/2000/svg" width="672px" height="478px" viewBox="78 152 516.2337084 367.23370839999995" version="1.1" id="svg5" xml:space="preserve" data-square-offset-x="99.41484419999998" data-square-offset-y="169.8615592"><defs id="defs2" style="fill: rgb(255, 255, 255);"/><g id="layer1" style="fill: rgb(255, 255, 255);"><path style="fill: rgb(255, 255, 255); stroke-width: 1;" d="m 325.6963942 502.19555920000073 c -7.295,-1.024 -15.339,-4.403 -24.595,-10.333 -19.85,-12.716 -42.904,-34.535 -66.205,-62.656 -3.168,-3.823 -6.809,-8.215 -8.092,-9.758 -1.283,-1.544 -4.62,-5.057 -7.416,-7.807 l -5.084,-5.001 -2.198,0.632 c -2.844,0.816 -9.105,0.63 -13.246,-0.395 -6.831,-1.691 -14.178,-5.023 -20.594,-9.34 -10.937,-7.358 -18.947,-18.451 -17.595,-24.362 0.398,-1.743 0.471,-1.65 -4.222,-5.439 -5.403,-4.363 -19.589,-14.054 -29.042,-19.842 -11.024,-6.748 -20.279,-13.741 -24.186,-18.273 -4.838,-5.614 -5.058,-10.335 -0.696,-14.947 2.294,-2.426 5.183,-4.199 8.951,-5.494 1.704,-0.587 3.293,-1.215 3.529,-1.397 0.236,-0.182 0.943,-1.208 1.572,-2.28 3.621,-6.18 5.715,-14.713 4.287,-17.475 -0.273,-0.528 -1.204,-1.447 -2.068,-2.042 -2.392,-1.645 -3.061,-2.505 -3.061,-3.929 0,-1.737 1.51,-3.01 4.507,-3.799 1.253,-0.33 2.44,-0.722 2.638,-0.871 0.582,-0.441 -0.08,-4.132 -1.079,-5.956 -1.005,-1.845 -1.931,-2.5 -6.384,-4.51 -1.721,-0.778 -3.491,-1.746 -3.932,-2.152 -1.978,-1.819 -2.658,-5.97 -1.423,-8.682 1.18,-2.589 4.697,-4.8 7.636,-4.8 0.514,0 1.815,-0.715 3.273,-1.799 8.34,-6.195 18.536,-9.161 42.263,-12.294 12.553,-1.657 20.601,-3.32 32.037,-6.622 8.147,-2.352 14.532,-4.793 21.587,-8.252 6.853,-3.359 9.49,-4.933 20.523,-12.249 30.35,-20.125 50.847,-28.689 84.813,-35.437 9.18,-1.824 11.988,-2.526 15.187,-3.797 4.006,-1.591 4.207,-1.533 8.334,2.419 4.234,4.055 7.386,6.665 13.108,10.857 2.345,1.718 6.292,4.619 8.771,6.447 2.48,1.829 6.798,4.868 9.596,6.754 6.119,4.124 9.838,7.139 12.314,9.983 5.409,6.211 7.357,10.23 8.928,18.419 0.428,2.23 0.89,4.055 1.026,4.055 0.136,0 2.528,-1.656 5.314,-3.68 17.061,-12.394 26.715,-16.937 34.907,-16.426 3.307,0.206 5.267,1.043 10.761,4.596 9.835,6.362 18.124,9.11 32.221,10.684 5.907,0.659 30.168,2.696 38.397,3.223 3.46,0.222 11.764,0.413 18.455,0.424 6.69,0.01 12.164,0.08 12.164,0.144 0,0.07 -1.808,1.995 -4.019,4.282 -5.894,6.097 -7.648,9.141 -8.079,14.016 -0.183,2.067 0.253,8.407 0.602,8.755 0.06,0.06 0.753,-0.204 1.536,-0.591 3.229,-1.598 6.138,-0.481 6.138,2.356 0,0.951 -0.288,1.687 -1.068,2.731 -5.836,7.807 -7.595,12.744 -7.276,20.425 0.135,3.258 0.323,4.298 1.235,6.823 1.141,3.16 2.652,6.358 3.713,7.861 0.611,0.866 0.775,0.911 3.351,0.914 4.309,0.01 7.165,0.98 9.286,3.165 1.832,1.886 2.345,3.253 2.353,6.265 0,3.592 -0.87,5.785 -3.984,9.937 -2.928,3.903 -4.844,7.597 -5.835,11.248 -1.025,3.778 -1.025,10.7 0,14.843 0.966,3.902 2.412,7.433 3.989,9.743 2.164,3.169 2.398,3.304 6.167,3.57 1.865,0.132 4.055,0.508 5.014,0.862 5.317,1.964 8.31,6.877 7.996,13.127 -0.253,5.041 -2.123,7.745 -7.536,10.895 -1.735,1.011 -5.763,3.361 -8.949,5.223 -5.616,3.281 -17.512,9.925 -35.253,19.688 -4.733,2.605 -14.192,7.82 -21.019,11.587 -15.733,8.684 -24.038,13.202 -37.735,20.528 -2.822,1.51 -7.068,3.785 -9.434,5.056 -2.367,1.271 -8.996,4.803 -14.731,7.849 -5.733,3.046 -13.033,6.924 -16.219,8.618 -19.062,10.138 -52.694,27.137 -64.216,32.458 -4.096,1.892 -10.532,4.962 -14.302,6.822 -3.769,1.861 -7.742,3.613 -8.827,3.894 -2.541,0.659 -6.28,0.873 -8.879,0.509 z m 5.337,-7.244 c 0.1,-0.16 -0.938,-0.458 -2.305,-0.661 -3.522,-0.524 -6.009,-1.429 -10.746,-3.91 -9.4,-4.925 -16.643,-10.174 -23.821,-17.265 -5.106,-5.044 -4.463,-4.749 5.616,2.572 10.118,7.349 15.919,11.127 20.574,13.399 7.597,3.708 10.666,3.883 17.989,1.028 5.193,-2.024 16.25,-7.061 28.055,-12.78 5.6,-2.712 10.26,-4.931 10.356,-4.931 0.1,0 6.166,-3.11 13.487,-6.91 24.016,-12.467 42.781,-22.152 57.623,-29.74 24.706,-12.631 48.302,-24.8 56.978,-29.385 4.551,-2.405 11.924,-6.276 16.385,-8.603 14.181,-7.398 27.099,-14.61 32.77,-18.294 6.095,-3.961 10.832,-7.986 12.712,-10.804 1.3,-1.947 1.029,-2.131 -0.427,-0.29 -1.505,1.906 -2.625,2.815 -7.32,5.943 -3.535,2.356 -14.216,8.427 -22.012,12.512 -2.367,1.24 -6.292,3.369 -8.723,4.73 -5.347,2.994 -21.581,10.953 -24.469,11.997 -1.941,0.701 -2.915,0.706 -2.204,0.01 0.609,-0.595 4.779,-2.822 15.37,-8.21 5.916,-3.01 12.47,-6.402 14.564,-7.536 2.094,-1.135 4.85,-2.624 6.124,-3.31 5.103,-2.745 15.398,-8.922 18.206,-10.923 5.716,-4.075 9.765,-8.386 9.765,-10.398 0,-0.833 -1.163,-2.347 -1.796,-2.337 -0.196,0 -0.714,0.833 -1.152,1.843 -3.166,7.311 -14.927,15.445 -40.607,28.083 -6.022,2.964 -12.991,6.531 -15.486,7.926 -5.055,2.828 -7.549,3.894 -8.185,3.501 -0.72,-0.445 0.102,-1.085 5.433,-4.229 6.929,-4.088 9.897,-5.702 17.934,-9.754 4.511,-2.275 10.762,-5.883 17.808,-10.283 11.071,-6.91 13.536,-8.604 15.293,-10.512 0.719,-0.781 0.491,-0.66 -0.828,0.437 -4.395,3.659 -13.114,8.362 -23.171,12.498 -3.186,1.31 -7.699,3.282 -10.029,4.382 -2.329,1.101 -4.315,1.921 -4.412,1.824 -0.493,-0.493 6.096,-4.392 15.269,-9.036 14.45,-7.316 19.938,-10.478 23.028,-13.27 1.356,-1.225 2.258,-3.084 1.497,-3.084 -0.238,0 -3.322,1.736 -6.852,3.858 -6.845,4.114 -10.932,6.223 -11.618,5.994 -0.231,-0.08 3.092,-2.469 7.386,-5.315 4.293,-2.846 7.991,-5.397 8.217,-5.669 0.474,-0.57 0.21,-1.185 -0.509,-1.185 -0.271,0 -2.013,0.901 -3.87,2.002 -6.647,3.943 -19.94,10.284 -26.98,12.873 -1.512,0.555 -2.671,0.883 -2.574,0.727 0.09,-0.155 1.78,-0.995 3.742,-1.867 8.291,-3.68 13.993,-6.871 22.717,-12.71 2.484,-1.662 4.518,-3.226 4.518,-3.473 0,-0.248 -0.217,-0.63 -0.482,-0.85 -0.392,-0.326 -1.115,0 -3.889,1.733 -7.469,4.675 -19.471,10.751 -26.252,13.29 -2.364,0.886 -6.058,2.424 -8.209,3.418 -2.149,0.995 -3.99,1.727 -4.089,1.628 -0.256,-0.256 5.224,-2.957 9.234,-4.551 5.545,-2.205 7.834,-3.266 11.674,-5.415 7.668,-4.29 18.991,-11.973 19.464,-13.208 0.419,-1.089 -0.395,-0.776 -3.631,1.395 -1.831,1.229 -4.653,3.031 -6.271,4.004 -6.261,3.765 -22.705,12.07 -23.424,11.83 -0.182,-0.06 1.596,-1.127 3.952,-2.369 8.376,-4.417 15.447,-8.65 20.953,-12.543 4.264,-3.015 7.375,-5.909 6.882,-6.402 -0.102,-0.101 -2.463,1.109 -5.247,2.69 -5.569,3.16 -15.698,8.217 -21.118,10.542 -1.912,0.82 -5.321,2.33 -7.577,3.355 -2.255,1.024 -4.162,1.802 -4.237,1.727 -0.188,-0.188 2.568,-1.695 12.642,-6.916 9.694,-5.025 13.083,-6.961 17.923,-10.239 3.199,-2.166 6.075,-4.808 6.075,-5.579 0,-0.409 -0.01,-0.403 -3.18,1.718 -3,2.007 -8.544,5.103 -13.206,7.371 -4.004,1.949 -13.371,5.633 -13.639,5.365 -0.09,-0.09 2.715,-1.612 6.239,-3.375 7.031,-3.518 11.433,-6.061 16.051,-9.274 3.596,-2.501 6.742,-5.303 6.742,-6.004 0,-0.446 -0.08,-0.445 -0.745,0.02 -4.553,3.174 -14.112,8.618 -20.293,11.557 -5.615,2.67 -7.315,2.883 -2.795,0.35 5.318,-2.981 12.701,-7.517 16.155,-9.925 3.459,-2.412 7.309,-5.871 6.944,-6.24 -0.129,-0.132 -2.512,1.25 -5.295,3.07 -9.35,6.117 -14.291,8.797 -21.149,11.474 -6.514,2.544 -7.486,2.504 -2.116,-0.09 6.059,-2.923 13.836,-7.732 20.247,-12.519 3.874,-2.893 8.385,-6.88 8.385,-7.413 0,-0.152 -1.006,0.413 -2.234,1.254 -11.223,7.688 -14.357,9.492 -22.923,13.188 -2.823,1.218 -6.602,2.952 -8.401,3.854 -1.799,0.902 -3.66,1.778 -4.138,1.948 -0.835,0.297 -0.842,0.289 -0.205,-0.217 1.081,-0.857 6.21,-3.806 12.766,-7.34 3.381,-1.822 7.403,-4.097 8.938,-5.055 3.695,-2.307 11.021,-7.766 14.604,-10.882 3.081,-2.677 3.788,-3.739 0.864,-1.294 -5.123,4.283 -11.434,8.533 -17.925,12.072 -8.911,4.859 -8.305,3.956 2.072,-3.084 6.822,-4.63 9.586,-6.645 11.782,-8.596 l 0.993,-0.881 -0.993,0.612 c -7.794,4.804 -13.881,8.314 -19.247,11.101 -3.593,1.866 -7.079,3.886 -7.746,4.488 -0.667,0.603 -2.091,1.632 -3.164,2.286 -2.557,1.558 -18.358,9.451 -20.488,10.234 -5.544,2.038 -12.651,4.913 -15.152,6.13 -3.149,1.533 -4.348,2.465 -1.493,1.16 0.963,-0.439 5.25,-2.06 9.528,-3.602 4.279,-1.541 9.013,-3.261 10.521,-3.822 2.452,-0.912 2.763,-0.962 2.952,-0.47 0.471,1.23 -2.484,2.786 -13.141,6.919 -10.211,3.958 -14.798,5.92 -21.17,9.051 -3.455,1.699 -5.562,2.562 -5.762,2.361 -0.2,-0.2 -0.168,-0.493 0.08,-0.801 0.751,-0.906 -2.502,0.253 -7.589,2.702 -2.644,1.273 -6.919,3.151 -9.499,4.174 -7.293,2.889 -18.988,7.808 -20.279,8.528 -1.458,0.814 -1.159,0.713 4.132,-1.389 2.367,-0.941 8.271,-3.1 13.121,-4.797 4.85,-1.697 9.899,-3.546 11.221,-4.109 5.049,-2.149 2.206,-0.291 -5.309,3.467 -5.001,2.502 -9.206,4.269 -20.1,8.45 -4.957,1.902 -9.016,3.561 -9.02,3.686 -0.02,0.426 16.715,-5.798 27.165,-10.107 2.84,-1.17 5.67,-2.227 6.29,-2.348 1.264,-0.247 -20.293,10.579 -25.189,12.65 -3.932,1.664 -8.764,3.37 -9.897,3.495 -0.473,0.05 -1.292,0.495 -1.819,0.985 -0.528,0.489 -1.088,0.89 -1.246,0.89 -0.368,0 -7.26,3.043 -13.85,6.115 -2.821,1.316 -9.599,4.298 -15.06,6.626 -5.462,2.329 -10.08,4.372 -10.262,4.542 -0.182,0.169 0.488,-0.01 1.489,-0.405 3.182,-1.244 23.924,-9.623 25.82,-10.429 1.001,-0.426 4.203,-1.776 7.117,-2.999 2.912,-1.224 6.785,-2.931 8.606,-3.793 3.63,-1.719 12.328,-5.518 22.342,-9.761 3.551,-1.503 7.591,-3.259 8.98,-3.901 3.585,-1.659 5.491,-2.251 6.458,-2.009 0.684,0.172 0.758,0.285 0.396,0.613 -0.839,0.766 -13.171,6.47 -21.626,10.003 -2.002,0.837 -5.875,2.46 -8.606,3.606 -5.296,2.222 -18.537,8.788 -19.363,9.601 -0.274,0.269 0.993,-0.171 2.813,-0.977 5.818,-2.575 11.954,-5.145 18.703,-7.834 11.855,-4.724 30.12,-12.851 30.12,-13.403 0,-0.11 -0.153,-0.104 -0.341,0.01 -0.188,0.116 -0.784,0.338 -1.324,0.493 -0.758,0.217 -0.983,0.174 -0.983,-0.185 0,-0.609 4.995,-2.995 10.428,-4.979 2.366,-0.864 8.398,-3.203 13.405,-5.197 14.619,-5.821 16.683,-6.597 15.066,-5.666 -0.92,0.529 -10.133,4.548 -24.665,10.758 -10.74,4.589 -14.155,6.431 -17.649,9.516 -3.215,2.838 -9.306,5.832 -20.914,10.281 -15.017,5.754 -20.844,8.212 -27.491,11.593 -7.813,3.975 -17.51,9.12 -16.699,8.861 3.834,-1.225 32.702,-13.591 38.397,-16.447 3.237,-1.624 13.293,-5.994 17.544,-7.624 2.276,-0.873 5.353,-2.121 6.84,-2.775 2.795,-1.23 3.422,-1.394 3.422,-0.897 0,1.954 -11.952,7.768 -29.13,14.171 -3.746,1.397 -7.517,3.077 -16.317,7.272 -6.326,3.016 -13.725,6.133 -19.929,8.395 -1.638,0.598 -5.362,2.127 -8.274,3.397 -10.442,4.555 -12.972,5.595 -17.214,7.078 -4.727,1.652 -5.461,1.977 -5.461,2.413 0,0.948 19.1,-6.343 26.512,-10.12 1.591,-0.811 2.57,-1.121 3.111,-0.985 0.434,0.109 0.884,0.05 1,-0.142 0.282,-0.458 3.889,-2.251 7.94,-3.948 1.82,-0.763 6.959,-3.146 11.42,-5.296 4.461,-2.15 8.78,-4.154 9.599,-4.452 l 1.49,-0.542 -0.828,0.718 c -0.455,0.394 -3.434,1.978 -6.621,3.519 -12.777,6.18 -21.667,10.364 -22.416,10.552 -0.434,0.109 -1.809,1.133 -3.054,2.276 -2.452,2.25 -6.156,4.256 -7.793,4.219 -1.207,-0.03 -4.118,1.045 -13.243,4.877 -3.823,1.605 -7.659,3.176 -8.524,3.49 -1.755,0.639 -2.165,1.268 -0.518,0.796 0.579,-0.166 1.124,-0.231 1.211,-0.145 0.31,0.31 -1.133,1.571 -2.712,2.372 -1.608,0.815 -1.988,1.414 -0.506,0.798 0.433,-0.18 2.798,-1.101 5.256,-2.048 2.458,-0.946 6.926,-2.832 9.93,-4.191 6.801,-3.077 7.836,-3.462 9.216,-3.431 0.609,0.01 1.652,-0.25 2.318,-0.586 2.243,-1.131 10.769,-4.413 16.437,-6.328 3.095,-1.046 6.409,-2.215 7.365,-2.598 3.016,-1.21 1.897,-0.46 -2.814,1.887 -8.238,4.105 -21.363,9.746 -26.019,11.183 -4.645,1.434 -9.613,3.17 -10.474,3.661 -0.805,0.459 -0.79,0.468 0.496,0.314 l 1.324,-0.158 -0.994,0.449 c -0.546,0.246 -4.269,1.831 -8.275,3.521 -5.612,2.369 -7.567,3.352 -8.523,4.287 -1.421,1.389 -1.623,2.113 -0.497,1.775 0.41,-0.124 3.873,-1.382 7.696,-2.796 6.753,-2.498 8.773,-3.154 8.773,-2.848 0,0.397 -4.709,2.919 -9.918,5.313 -3.193,1.467 -6.66,3.15 -7.705,3.74 -1.043,0.59 -2.039,1.073 -2.211,1.073 -0.565,0 -0.655,-1.1 -0.422,-5.125 0.22,-3.818 0.257,-3.967 0.971,-3.972 0.531,0 1.255,-0.688 2.548,-2.406 0.995,-1.32 1.703,-2.399 1.576,-2.398 -0.127,0 -1.125,0.595 -2.218,1.323 -1.092,0.727 -2.082,1.322 -2.199,1.323 -0.537,0 -0.536,-1.121 0,-2.72 0.323,-0.962 0.553,-2.493 0.511,-3.403 -0.06,-1.341 0.08,-1.812 0.698,-2.483 0.567,-0.607 2.145,-3.93 2.147,-4.52 0,-0.03 -1.17,0.03 -2.601,0.127 -1.573,0.108 -3.307,0.01 -4.386,-0.237 -1.882,-0.439 -8.069,-2.976 -13.668,-5.606 -3.083,-1.448 -16.558,-9.027 -21.237,-11.945 -2.917,-1.82 -7.809,-4.209 -14.202,-6.939 -3.088,-1.318 -6.886,-2.983 -8.44,-3.7 -4.242,-1.957 -2.503,-0.697 3.298,2.388 2.821,1.5 5.668,3.067 6.326,3.481 0.659,0.414 3.935,2.122 7.283,3.796 6.766,3.385 15.292,7.975 22.283,11.998 8.637,4.97 15.466,7.917 19.535,8.429 1.072,0.135 2.007,0.423 2.08,0.639 0.224,0.674 -1.171,1.758 -2.263,1.758 -2.67,0 -11.206,-3.66 -17.509,-7.509 -5.369,-3.279 -15.839,-9.278 -23.998,-13.751 -14.394,-7.892 -19.142,-9.968 -35.75,-15.636 -4.369,-1.491 -8.242,-2.833 -8.606,-2.982 -0.464,-0.191 -0.564,-0.166 -0.331,0.08 0.182,0.194 3.118,1.648 6.525,3.229 5.818,2.701 13.229,6.611 20.452,10.792 1.729,1.001 5.007,2.842 7.282,4.092 2.277,1.25 5.33,3.01 6.786,3.912 19.333,11.97 23.897,14.734 28.184,17.065 6.405,3.482 11.007,5.504 13.706,6.02 3.377,0.645 4.069,1.31 2.64,2.534 -0.611,0.523 -0.617,0.599 -0.105,1.165 0.726,0.803 0.229,2.362 -0.8,2.51 -1.052,0.151 -7.125,-1.965 -11.07,-3.858 -4.312,-2.069 -10.64,-5.918 -16.832,-10.237 -2.639,-1.842 -7.406,-5.093 -10.592,-7.225 -6.592,-4.41 -6.936,-4.672 -5.182,-3.94 1.224,0.511 6.68,3.82 17.87,10.838 5.851,3.669 18.123,10.083 21.365,11.166 1.162,0.388 2.577,0.657 3.146,0.597 0.879,-0.09 0.737,-0.178 -0.954,-0.578 -2.047,-0.484 -8.996,-3.886 -14.233,-6.968 -3.599,-2.119 -4.685,-2.82 -18.371,-11.87 -11.367,-7.516 -14.174,-9.074 -27.474,-15.253 -4.46,-2.072 -10.158,-4.786 -12.661,-6.031 -2.503,-1.244 -4.551,-2.185 -4.551,-2.091 0,0.372 3.996,2.69 11.376,6.598 11.155,5.909 18.647,10.579 22.883,14.265 3.487,3.033 11.648,9.105 17.047,12.682 7.965,5.276 19.511,10.784 26.143,12.472 3.427,0.872 4.018,1.483 2.77,2.862 -0.836,0.923 -2.257,0.743 -6.605,-0.837 -9.6,-3.489 -15.592,-7.13 -27.604,-16.771 -2.639,-2.119 -6.066,-4.752 -7.613,-5.85 -5.648,-4.01 -15.808,-10.233 -22.891,-14.019 -2.753,-1.472 -5.389,-2.927 -5.857,-3.234 -0.469,-0.306 -0.75,-0.39 -0.623,-0.185 0.126,0.204 3.024,2.276 6.442,4.605 3.417,2.329 7.032,4.857 8.033,5.617 1.001,0.761 4.064,2.879 6.806,4.709 2.742,1.829 6.913,4.87 9.268,6.758 12.955,10.378 22.339,15.872 32.751,19.173 5.844,1.853 7.447,2.476 7.447,2.893 0,0.154 -0.385,0.64 -0.855,1.082 -1.212,1.137 -3.175,0.996 -7.256,-0.524 -4.543,-1.691 -13.535,-6.135 -16.589,-8.198 -2.635,-1.781 -2.856,-2.452 -0.399,-1.213 1.808,0.912 1.787,0.893 -2.311,-2.148 -1.876,-1.393 -4.859,-3.681 -6.629,-5.085 -3.006,-2.385 -7.165,-5.305 -13.461,-9.448 -1.457,-0.958 -3.318,-2.202 -4.137,-2.764 -2.705,-1.854 -24.904,-13.677 -25.683,-13.677 -0.156,0 1.573,1.09 3.844,2.421 6.164,3.614 13.065,8.216 19.236,12.828 13.198,9.862 28.628,20.528 34.576,23.901 2.879,1.632 8.9,4.223 13.249,5.701 1.478,0.502 3.481,1.304 4.451,1.781 3.252,1.6 3.045,2.886 -0.452,2.81 -2.628,-0.06 -7.179,-1.717 -12.81,-4.671 -7.57,-3.971 -10.924,-6.304 -32.936,-22.905 -4.806,-3.625 -10.774,-7.697 -15.557,-10.614 -10.573,-6.447 -13.979,-8.404 -19.033,-10.939 -3.187,-1.597 -6.74,-3.298 -7.898,-3.78 -4.137,-1.72 -2.311,-0.509 3.981,2.642 14.334,7.176 25.949,14.728 41.983,27.297 7.677,6.017 13.136,9.733 21.184,14.419 8.608,5.011 12.348,6.962 17.734,9.254 4.987,2.121 5.748,3.015 2.513,2.952 -2.441,-0.05 -6.33,-1.908 -12.267,-5.871 -2.985,-1.992 -6.337,-4.146 -7.447,-4.785 -1.112,-0.64 -2.655,-1.526 -3.429,-1.97 -0.773,-0.443 -1.407,-0.729 -1.407,-0.634 0,0.09 1.62,1.149 3.599,2.341 1.98,1.193 4.549,2.869 5.71,3.726 3.782,2.789 9.983,6.721 13.113,8.313 1.685,0.857 3.064,1.663 3.065,1.792 0,0.48 -2.498,0.677 -4.315,0.339 -3.58,-0.666 -8.733,-3.163 -15.602,-7.562 -2.349,-1.505 -5.958,-3.403 -5.404,-2.843 0.182,0.184 4.055,2.831 8.607,5.882 8.885,5.956 12.129,7.679 16.544,8.786 1.545,0.388 2.731,0.832 2.635,0.988 -0.1,0.155 -0.781,0.446 -1.523,0.645 -1.777,0.479 -5.625,-0.284 -8.448,-1.673 -3.702,-1.823 -15.274,-10.408 -17.588,-13.049 -0.614,-0.7 -1.017,-1.463 -0.914,-1.73 0.1,-0.263 0.05,-0.395 -0.114,-0.294 -0.32,0.197 -2.012,-1.639 -2.012,-2.183 0,-0.185 0.323,-0.231 0.745,-0.106 1.195,0.357 5.942,2.493 7.133,3.212 2.295,1.382 1.26,0.197 -2.997,-3.432 -2.429,-2.07 -4.93,-4.182 -5.559,-4.694 -0.629,-0.511 -0.919,-0.835 -0.646,-0.72 0.558,0.235 0.671,0.329 -4.933,-4.067 -2.259,-1.771 -5.155,-4.091 -6.439,-5.154 -3.038,-2.518 -8.729,-6.747 -13.239,-9.838 -7.98,-5.47 -17.097,-11.225 -17.097,-10.793 0,0.09 0.655,0.543 1.456,1.012 2.545,1.491 10.66,7.857 15.579,12.22 0.667,0.592 0.665,0.594 -0.154,0.203 -0.455,-0.217 -1.497,-0.878 -2.317,-1.468 -0.819,-0.59 -3.947,-2.558 -6.951,-4.373 -3.004,-1.814 -6.876,-4.168 -8.607,-5.23 -1.729,-1.062 -4.335,-2.621 -5.792,-3.464 -1.457,-0.843 -3.095,-1.819 -3.641,-2.169 -0.832,-0.533 -0.921,-0.544 -0.547,-0.07 0.245,0.31 2.032,1.639 3.972,2.954 9.925,6.729 30.946,23.107 42.376,33.018 8.287,7.186 9.65,8.328 14.512,12.16 7.352,5.796 14.465,10.432 18.716,12.198 1.229,0.511 2.234,1.059 2.234,1.218 0,0.159 -0.371,0.431 -0.826,0.604 -1.226,0.466 -3.771,-0.127 -6.953,-1.618 -4.521,-2.118 -7.177,-4.073 -21.192,-15.594 -5.647,-4.643 -12.704,-10.378 -15.682,-12.745 -2.977,-2.366 -8.187,-6.55 -11.577,-9.296 -3.391,-2.746 -7.953,-6.29 -10.138,-7.877 l -3.972,-2.884 2.648,2.397 c 3.964,3.587 7.523,7.298 10.121,10.552 1.279,1.601 3.621,4.019 5.205,5.373 1.583,1.355 4.072,3.495 5.528,4.756 8.179,7.082 17.887,15.17 22.84,19.027 13.911,10.835 19.873,14.064 26.66,14.437 5.361,0.295 7.358,-0.406 29.447,-10.331 1.729,-0.777 4.782,-2.193 6.785,-3.146 2.003,-0.953 5.801,-2.738 8.441,-3.965 2.64,-1.228 9.864,-4.62 16.054,-7.537 14.53,-6.849 28.632,-13.172 28.632,-12.836 0,0.222 -5.342,3.153 -17.212,9.445 -26.443,14.016 -35.934,18.856 -50.313,25.658 -17.276,8.171 -18.094,8.473 -23.511,8.688 -4.755,0.188 -6.764,-0.273 -11.742,-2.697 -8.415,-4.096 -20.162,-13.077 -36.455,-27.873 -2.39,-2.17 -7.083,-6.399 -10.427,-9.398 -3.344,-2.998 -12.113,-11.501 -19.486,-18.895 -7.373,-7.394 -15.194,-14.927 -17.379,-16.74 -2.41,-2.001 -4.189,-3.747 -4.525,-4.441 -0.304,-0.63 -1.103,-2.318 -1.776,-3.752 -1.742,-3.711 -4.711,-6.675 -8.517,-8.501 -2.968,-1.425 -4.003,-1.499 -4.379,-0.316 -0.31,0.978 0.415,1.798 3.12,3.529 4.816,3.083 6.068,4.622 8.106,9.969 1.741,4.572 3.29,6.635 12.234,16.297 1.938,2.094 6.157,6.711 9.377,10.262 13.025,14.364 35.684,35.404 49.253,45.732 1.092,0.831 3.773,2.699 5.958,4.15 8.401,5.579 13.454,8.157 18.371,9.37 2.583,0.638 8.101,0.88 8.417,0.369 z m -6.658,-15.713 c -4.746,-1.805 -9.121,-4.851 -19.798,-13.781 -12.425,-10.392 -27.64,-24.254 -27.64,-25.182 0,-0.193 0.186,-0.24 0.414,-0.105 0.94,0.557 5.849,4.329 7.696,5.913 2.893,2.482 23.32,19.164 26.812,21.897 4.698,3.676 8.72,6.233 13.773,8.756 5.009,2.5 5.34,2.94 2.383,3.162 -1.106,0.08 -2.217,-0.119 -3.64,-0.66 z m 15.898,-4.372 c -0.293,-0.763 1.303,-2.256 3.822,-3.575 1.204,-0.631 4.87,-2.334 8.148,-3.786 3.276,-1.452 9.279,-4.145 13.337,-5.985 4.059,-1.839 9.868,-4.408 12.909,-5.708 3.042,-1.3 8.882,-3.928 12.978,-5.84 4.096,-1.912 8.789,-4.036 10.427,-4.72 1.639,-0.685 8.504,-3.853 15.257,-7.042 6.752,-3.189 14.248,-6.639 16.657,-7.668 2.41,-1.029 8.206,-3.592 12.88,-5.695 10.011,-4.504 9.989,-4.495 9.989,-4.076 0,0.962 -3.863,3.071 -16.055,8.765 -8.657,4.044 -8.683,4.055 -18.536,8.444 -7.975,3.552 -12.984,5.923 -44.025,20.839 -22.682,10.9 -35.365,16.563 -37.091,16.563 -0.275,0 -0.588,-0.232 -0.697,-0.516 z m -4.085,-4.267 c 0,-0.264 0.485,-0.839 1.076,-1.278 2.638,-1.959 39.22,-17.967 51.653,-22.605 2.148,-0.801 4.085,-1.454 4.303,-1.45 0.9,0.01 -4.944,3.087 -16.979,8.933 -7.009,3.405 -14.71,7.177 -17.114,8.384 -11.489,5.77 -22.939,9.771 -22.939,8.016 z m 1.656,-6.06 c 0,-0.69 0.334,-0.853 12.412,-6.027 4.856,-2.081 14.676,-6.171 17.875,-7.445 l 1.324,-0.527 -1.074,0.941 c -1.482,1.298 -6.002,3.728 -13.822,7.429 -8.98,4.25 -12.513,5.637 -14.813,5.813 -1.142,0.09 -1.902,0.01 -1.902,-0.184 z m -2.428,-2.618 c -0.466,-0.466 -0.188,-1.428 0.521,-1.808 0.986,-0.528 9.442,-3.471 23.588,-8.21 12.347,-4.136 12.564,-4.225 19.258,-7.915 6.03,-3.324 12.684,-5.81 12.684,-4.738 0,1.35 -7.241,4.658 -26.812,12.248 -2.822,1.095 -8.984,3.566 -13.694,5.491 -10.714,4.38 -14.801,5.676 -15.545,4.932 z m 0.331,-4.303 c -0.464,-0.464 -0.19,-1.678 0.524,-2.325 2.227,-2.018 16.511,-8.596 26.067,-12.005 4.064,-1.449 5.958,-2.025 5.958,-1.81 0,0.147 -4.524,2.329 -11.254,5.427 -4.947,2.278 -9.6,4.599 -9.6,4.788 0,0.278 9.607,-3.773 15.062,-6.351 3.094,-1.463 7.489,-3.406 9.765,-4.318 2.275,-0.913 6.073,-2.582 8.44,-3.709 9.811,-4.671 29.836,-13.14 30.204,-12.773 0.554,0.555 -26.785,13.811 -37.577,18.219 -2.863,1.169 -7.142,3.046 -9.508,4.171 -9.72,4.62 -16.872,7.676 -23.115,9.876 -2.824,0.995 -4.506,1.27 -4.966,0.81 z m -61.154,-1.744 c -2.815,-1.868 -8.51,-7.202 -20.164,-18.89 -6.463,-6.482 -11.975,-12.066 -12.248,-12.41 -0.573,-0.722 -0.648,-0.758 2.317,1.102 6.062,3.804 16.632,13.603 25.407,23.556 2.649,3.004 5.192,5.87 5.651,6.368 1.185,1.286 0.75,1.41 -0.963,0.274 z m 99.993,-11.271 c 0,-0.41 2.428,-1.646 7.22,-3.675 2.059,-0.871 3.688,-1.408 3.621,-1.192 -0.16,0.504 -9.381,5.193 -10.213,5.193 -0.346,0 -0.628,-0.147 -0.628,-0.326 z m 27.143,-0.487 c 0,-0.868 10.387,-6.459 18.371,-9.889 6.156,-2.645 15.257,-6.669 19.164,-8.474 1.619,-0.749 3.006,-1.3 3.081,-1.225 0.452,0.453 -4.586,3.126 -17.115,9.079 -5.735,2.725 -13.226,6.313 -16.647,7.972 -3.422,1.661 -6.364,3.019 -6.538,3.019 -0.174,0 -0.316,-0.217 -0.316,-0.482 z m -7.945,-2.931 c 0,-0.705 1.118,-1.339 10.998,-6.247 16.227,-8.061 39.484,-18.75 39.896,-18.337 0.156,0.156 -0.839,0.731 -8.193,4.733 -15.749,8.571 -25.2,13.082 -42.287,20.183 -0.227,0.09 -0.414,-0.06 -0.414,-0.332 z m 37.405,-1.366 c 0,-0.556 1.363,-1.646 3.971,-3.173 4.693,-2.747 19.532,-10.424 36.97,-19.127 18.65,-9.306 20.359,-10.202 24.376,-12.781 1.886,-1.211 2.871,-1.349 2.871,-0.403 0,0.586 -1.759,2.152 -4.055,3.611 -0.956,0.608 -5.089,2.83 -9.186,4.939 -4.095,2.109 -10.252,5.346 -13.68,7.193 -8.298,4.471 -18.204,9.422 -29.682,14.834 -12.358,5.827 -11.585,5.5 -11.585,4.907 z m -70.34,-1.347 c 1.33,-1.094 3.463,-2.191 6.168,-3.173 11.729,-4.257 19.724,-7.552 29.388,-12.113 1.744,-0.823 5.555,-2.582 8.468,-3.908 2.913,-1.327 6.637,-3.04 8.276,-3.807 8.665,-4.059 19.113,-8.577 26.977,-11.665 6.929,-2.721 22.105,-7.992 21.619,-7.509 -0.276,0.275 -8.922,4.116 -38.17,16.957 -3.914,1.719 -8.383,3.65 -9.93,4.292 -1.547,0.641 -5.42,2.388 -8.606,3.881 -3.186,1.493 -9.145,4.196 -13.24,6.008 -4.097,1.812 -8.779,4.048 -10.406,4.968 -2.456,1.391 -5.103,2.595 -5.702,2.595 -0.08,0 0.396,-0.466 1.046,-1.037 0.649,-0.57 1.11,-1.108 1.023,-1.195 -0.165,-0.165 -5.649,1.975 -11.295,4.411 -1.827,0.787 -3.987,1.523 -4.8,1.635 -1.407,0.194 -1.447,0.178 -0.816,-0.34 z m 27.639,-1.205 c 0.455,-0.379 2.168,-1.362 3.807,-2.183 1.638,-0.822 5.511,-2.843 8.606,-4.493 7.3,-3.89 14.177,-7.29 19.448,-9.614 2.322,-1.024 6.046,-2.666 8.275,-3.648 4.494,-1.98 8.1,-3.184 9.536,-3.184 0.525,0 2.899,-1.021 5.345,-2.298 11.291,-5.895 36.679,-16.553 52.893,-22.205 9.157,-3.192 23.246,-7.943 23.494,-7.922 0.414,0.03 -2.669,1.479 -5.268,2.466 -1.558,0.593 -6.707,2.589 -11.441,4.437 -4.732,1.847 -10.766,4.196 -13.405,5.218 -8.945,3.465 -41.955,17.761 -47.501,20.571 -2.112,1.071 -3.563,1.574 -4.989,1.731 -1.317,0.145 -3.14,0.737 -5.295,1.719 -5.958,2.716 -23.701,11.05 -29.768,13.983 -10.684,5.163 -15.899,7.221 -13.737,5.422 z m -59.979,-1.079 c -4.669,-1.648 -14.356,-7.051 -26.746,-14.919 -10.15,-6.445 -14.576,-9.142 -20.62,-12.564 -2.512,-1.422 -4.492,-2.66 -4.401,-2.751 0.435,-0.435 11.518,5.4 22.373,11.777 11.557,6.791 14.685,8.552 19.314,10.877 6.377,3.203 10.032,4.594 13.241,5.04 1.43,0.198 2.734,0.443 2.897,0.544 0.654,0.404 0.252,1.505 -0.779,2.134 -1.395,0.851 -2.563,0.82 -5.279,-0.138 z m 42.105,0.521 c 0.273,-0.168 0.869,-0.406 1.324,-0.528 0.575,-0.154 0.675,-0.128 0.331,0.09 -0.273,0.169 -0.869,0.407 -1.324,0.528 -0.575,0.154 -0.677,0.128 -0.331,-0.09 z m 3.64,-1.38 c 0.273,-0.176 0.646,-0.32 0.828,-0.32 0.182,0 0.108,0.144 -0.165,0.32 -0.273,0.177 -0.646,0.321 -0.828,0.321 -0.182,0 -0.108,-0.144 0.165,-0.321 z m -80.932,-2.06 c -6.447,-4.644 -10.426,-7.8 -10.426,-8.271 0,-0.413 3.094,1.835 7.696,5.592 3.405,2.781 4.152,3.449 3.806,3.405 -0.05,-0.01 -0.53,-0.332 -1.076,-0.726 z m 127.936,-14.007 c 4.815,-2.719 22.646,-11.564 25.447,-12.622 2.401,-0.906 2.984,-0.749 1.531,0.414 -1.163,0.93 -12.409,6.716 -15.061,7.749 -1.627,0.634 -4.17,1.742 -12.62,5.501 -1.389,0.618 -2.655,1.12 -2.814,1.116 -0.159,0 1.423,-0.975 3.517,-2.158 z m -29.459,1.527 c 0,-0.895 7.775,-5.208 15.547,-8.625 4.159,-1.828 23.251,-9.313 23.394,-9.171 0.144,0.144 -14.228,7.159 -17.591,8.586 -5.518,2.343 -13.813,6.078 -16.717,7.528 -3.643,1.819 -4.633,2.179 -4.633,1.682 z m 62.561,-5.295 c 0,-0.345 5.191,-3.559 9.267,-5.738 7.209,-3.853 29.658,-13.544 39.275,-16.953 9.598,-3.403 7.493,-1.871 -5.346,3.891 -37.247,16.717 -43.196,19.306 -43.196,18.8 z m 21.35,-22.929 c 6.868,-3.467 18.128,-8.369 24.857,-10.822 5.246,-1.912 15.375,-5.098 15.575,-4.899 0.08,0.07 -2.814,1.141 -6.414,2.375 -10.036,3.441 -18.71,6.985 -32.351,13.218 -3.815,1.744 -7.092,3.163 -7.282,3.153 -0.188,-0.01 2.337,-1.371 5.615,-3.025 z m -14.388,1.902 c 1.085,-1.072 37.848,-17.051 38.267,-16.632 0.08,0.08 -1.613,0.896 -3.759,1.817 -2.145,0.922 -6.433,2.816 -9.528,4.209 -3.095,1.394 -8.978,3.997 -13.075,5.785 -4.096,1.787 -8.467,3.711 -9.713,4.275 -2.54,1.15 -2.89,1.237 -2.192,0.546 z m -7.956,-4.122 c 0,-0.447 12.365,-6.449 19.53,-9.479 9.836,-4.161 21.649,-8.476 23.042,-8.416 0.162,0.01 -2.387,1.027 -5.664,2.267 -3.277,1.241 -7.895,3.078 -10.261,4.084 -7.864,3.342 -20.291,8.82 -22.241,9.803 -2.777,1.4 -4.406,2.044 -4.406,1.741 z m -4.964,-3.308 c 0,-0.505 0.734,-0.918 5.958,-3.343 10.601,-4.923 18.351,-8.027 40.549,-16.244 2.548,-0.944 6.495,-2.53 8.771,-3.526 8.116,-3.552 9.701,-3.915 3.408,-0.782 -4.259,2.121 -8.87,4.01 -16.649,6.821 -9.993,3.611 -24.595,9.502 -31.985,12.904 -8.279,3.811 -10.052,4.547 -10.052,4.17 z m -1.325,-8.992 c 1.86,-1.276 20.682,-10.153 30.122,-14.207 2.64,-1.133 7.274,-3.013 10.298,-4.176 3.023,-1.163 8.228,-3.234 11.564,-4.6 3.338,-1.367 6.226,-2.478 6.419,-2.469 0.847,0.04 -5.61,2.991 -13.385,6.119 -13.654,5.492 -23.286,9.696 -37.072,16.181 -4.094,1.926 -7.669,3.5 -7.943,3.497 -0.443,0 -0.444,-0.04 0,-0.345 z m 43.214,-13.853 c 1.432,-1.371 19.257,-9.986 20.598,-9.955 0.739,0.02 -19.952,10.256 -20.726,10.256 -0.103,0 -0.05,-0.136 0.128,-0.301 z m -181.114,110.266 c -0.566,-0.493 -2.428,-2.068 -4.138,-3.498 -11.07,-9.26 -10.902,-9.107 -24.13,-22.198 -7.179,-7.105 -13.189,-12.718 -17.047,-15.916 -3.277,-2.718 -7,-5.85 -8.276,-6.962 -2.6,-2.268 -5.477,-4.471 -7.943,-6.082 l -1.655,-1.081 1.178,1.104 c 0.648,0.608 4.048,3.701 7.553,6.874 3.506,3.173 6.673,6.153 7.037,6.621 0.365,0.468 4.339,4.4 8.832,8.739 11.077,10.694 19.169,17.658 33.433,28.771 5.431,4.233 7.58,5.744 5.156,3.628 z m -4.766,-26.042 c 0,-0.08 -0.335,-0.316 -0.745,-0.515 -0.715,-0.346 -0.719,-0.34 -0.101,0.154 0.674,0.541 0.846,0.614 0.846,0.361 z m 35.674,-12.034 c 0.249,-0.745 -0.462,-0.384 -1.598,0.81 l -1.14,1.2 1.304,-0.81 c 0.717,-0.446 1.363,-0.986 1.434,-1.2 z m 5.786,-1.372 c 0.5,-0.25 0.91,-0.578 0.91,-0.73 0,-0.51 -0.62,-0.279 -1.554,0.58 -0.966,0.888 -0.878,0.909 0.644,0.15 z m 0.91,-4.036 c 0.637,-0.391 0.982,-0.772 0.766,-0.846 -0.44,-0.152 -2.27,0.716 -2.586,1.227 -0.35,0.566 0.603,0.367 1.82,-0.381 z m 5.121,-4.802 c 0.359,-0.243 0.538,-0.442 0.398,-0.442 -0.349,0 -2.209,0.974 -2.209,1.157 0,0.213 1.054,-0.203 1.811,-0.715 z m 21.402,-0.856 c 0.36,-0.675 0.346,-0.702 -0.154,-0.29 -0.302,0.25 -0.551,0.585 -0.551,0.745 0,0.505 0.295,0.316 0.705,-0.455 z m -16.043,-1.42 c 1.477,-0.866 1.88,-1.292 0.856,-0.905 -0.779,0.294 -2.73,1.447 -2.73,1.613 0,0.287 0.496,0.1 1.874,-0.708 z m -16.243,-2.303 c 2.979,-1 6.544,-2.77 14.115,-7.007 9.09,-5.087 16.039,-8.812 24.749,-13.266 11.923,-6.098 18.67,-9.698 31.777,-16.959 6.463,-3.581 13.389,-7.376 15.392,-8.434 2.003,-1.059 5.726,-3.08 8.275,-4.493 6.566,-3.639 42.311,-22.247 50.81,-26.451 7.009,-3.466 10.041,-4.783 19.53,-8.483 6.524,-2.544 19.498,-8.971 26.193,-12.975 6.683,-3.997 14.042,-8.664 16.507,-10.469 3.6,-2.636 6.17,-5.736 5.88,-7.092 -0.08,-0.41 -0.27,-0.275 -0.689,0.515 -1.632,3.073 -4.642,5.111 -15.709,10.635 -3.989,1.991 -9.846,5.179 -13.014,7.084 -7.154,4.302 -10.553,6.03 -19.747,10.043 -2.285,0.998 -0.874,0.09 3.972,-2.549 2.777,-1.513 7.729,-4.302 11.006,-6.199 6.432,-3.723 13.175,-7.595 18.703,-10.74 8.64,-4.916 12.909,-8.755 12.909,-11.61 0,-0.672 -0.238,-0.862 -1.471,-1.172 -1.991,-0.501 -2.17,-0.476 -2.17,0.308 0,2.578 -4.093,5.572 -17.409,12.738 -3.624,1.95 -8.079,4.401 -9.899,5.446 -6.926,3.976 -21.572,12.038 -31.281,17.219 -5.553,2.962 -11.213,6.012 -12.579,6.777 -1.365,0.764 -4.94,2.703 -7.944,4.308 -3.004,1.605 -9.632,5.186 -14.73,7.958 -17.224,9.366 -33.302,17.477 -52.134,26.298 -3.187,1.492 -9.517,4.622 -14.068,6.954 -30.576,15.669 -38.94,19.57 -47.936,22.361 -2.493,0.773 -3.289,0.878 -5.462,0.718 -3.107,-0.228 -4.01,-0.54 -14.808,-5.128 -8.692,-3.692 -15.517,-6.337 -23.65,-9.165 -5.591,-1.944 -17.938,-6.843 -17.741,-7.04 0.463,-0.464 14.04,3.176 21.416,5.742 2.41,0.838 6.255,2.343 8.545,3.344 7.66,3.346 15.384,6.464 19.21,7.754 5.285,1.782 6.255,1.739 11.539,-0.509 2.31,-0.983 5.913,-2.488 8.007,-3.346 2.093,-0.857 8.126,-3.573 13.406,-6.035 5.279,-2.462 11.238,-5.188 13.24,-6.058 15.077,-6.549 18.467,-8.159 39.225,-18.628 17.04,-8.593 23.056,-11.694 51.803,-26.704 6.008,-3.137 13.084,-6.827 15.723,-8.201 2.64,-1.373 8.524,-4.502 13.076,-6.952 4.55,-2.45 10.509,-5.65 13.24,-7.112 13.596,-7.278 23.544,-12.926 28.301,-16.07 2.296,-1.517 7.713,-5.386 8.241,-5.886 0.118,-0.112 -1.522,-2.786 -1.708,-2.785 -0.05,0 -1.103,0.968 -2.357,2.15 -4.6,4.339 -10.883,8.125 -36.119,21.768 -19.815,10.712 -51.333,26.607 -52.193,26.321 -0.93,-0.311 30.277,-17.157 49.049,-26.478 14.523,-7.211 21.746,-11.196 28.964,-15.977 6.618,-4.384 11.499,-8.808 10.653,-9.654 -0.09,-0.09 -1.109,0.606 -2.264,1.547 -4.948,4.032 -18.76,12.57 -20.335,12.57 -0.146,0 1.257,-0.9 3.118,-2.001 4.525,-2.675 10.844,-7.472 14.149,-10.739 4.055,-4.01 5.042,-6.506 1.335,-3.376 -4.544,3.836 -12.335,9.184 -18.82,12.919 -1.776,1.023 -7.064,3.786 -11.752,6.141 -4.688,2.356 -10.758,5.469 -13.489,6.92 -2.73,1.45 -12.115,6.356 -20.854,10.903 -8.738,4.546 -19.307,10.17 -23.485,12.499 -7.551,4.208 -11.051,5.959 -11.338,5.671 -0.16,-0.16 1.52,-1.164 9.335,-5.579 11.345,-6.408 15.877,-8.813 46.839,-24.848 17.601,-9.116 20.463,-10.675 25.487,-13.887 11.699,-7.481 18.538,-13.274 18.538,-15.705 0,-0.783 -0.109,-0.732 -1.883,0.89 -5.517,5.041 -15.091,11.227 -28.405,18.351 -16.068,8.598 -38.232,19.148 -38.232,18.198 0,-0.07 1.378,-0.822 3.062,-1.667 1.684,-0.844 6.562,-3.433 10.84,-5.753 4.279,-2.32 11.279,-6.078 15.558,-8.352 18.052,-9.593 29.387,-17.038 35.829,-23.53 2.332,-2.349 3.024,-3.546 2.308,-3.989 -0.143,-0.09 -1.967,1.251 -4.055,2.976 -7.467,6.172 -16.098,11.802 -27.131,17.698 -10.893,5.822 -10.521,5.063 0.828,-1.69 13.606,-8.096 19.048,-11.919 25.363,-17.816 2.315,-2.162 4.53,-4.865 4.229,-5.159 -0.08,-0.07 -1.696,1.137 -3.608,2.683 -7.8,6.31 -16.11,11.912 -16.737,11.283 -0.08,-0.09 2.86,-2.525 6.551,-5.417 6.501,-5.093 13.828,-11.838 13.828,-12.729 0,-0.26 -0.37,-0.09 -0.911,0.42 -1.464,1.379 -20.366,15.209 -26.053,19.061 -3.078,2.086 -23.045,12.09 -40.067,20.075 -12.332,5.785 -28.189,13.334 -44.52,21.193 -5.189,2.497 -10.932,5.181 -12.763,5.965 -3.982,1.705 -16.388,6.215 -16.577,6.026 -0.161,-0.161 3.458,-1.827 9.479,-4.365 12.557,-5.293 18.298,-7.98 36.245,-16.965 10.742,-5.378 23.105,-11.454 27.475,-13.502 4.368,-2.048 11.757,-5.512 16.416,-7.698 18.64,-8.744 24.863,-12.201 31.911,-17.723 3.579,-2.805 9.769,-8.197 12.74,-11.099 2.134,-2.085 2.139,-2.094 0.5,-0.91 -11.165,8.069 -13.01,9.253 -20.687,13.278 -23.854,12.503 -30.092,15.699 -41.212,21.113 -13.75,6.696 -17.206,8.275 -38.893,17.774 -30.54,13.377 -50.408,20.997 -72.536,27.82 -8.267,2.549 -9.988,2.899 -11.554,2.353 -0.581,-0.203 -3.17,-1.633 -5.752,-3.179 -7.883,-4.718 -15.964,-7.996 -29.009,-11.766 -10.395,-3.005 -17.956,-4.551 -26.629,-5.444 -4.69,-0.483 -14.901,-0.781 -15.237,-0.444 -0.177,0.177 1.384,0.358 12.423,1.441 8.266,0.811 14.305,1.973 24.992,4.809 6.566,1.742 10.848,3.146 15.594,5.11 3.377,1.398 8.313,3.867 9.231,4.618 l 0.663,0.541 -0.663,-0.168 c -3.528,-0.897 -12.478,-3.651 -19.363,-5.958 -17.168,-5.754 -23.422,-6.839 -44.198,-7.665 -4.986,-0.198 -6.062,-0.142 -9.355,0.488 -6.691,1.28 -12.827,3.934 -19.408,8.394 -3.897,2.641 -9.063,7.843 -11.745,11.826 -2.449,3.639 -2.124,3.401 1.37,-1 7.651,-9.64 17.013,-15.25 29.817,-17.871 3.289,-0.674 4.23,-0.719 11.585,-0.565 7.779,0.164 9.894,0.389 16.086,1.712 3.653,0.781 12.328,3.098 12.565,3.356 0.251,0.272 -0.44,0.178 -9.723,-1.328 -10.483,-1.7 -15.058,-2.052 -20.265,-1.556 -4.881,0.465 -10.289,1.595 -15.484,3.235 -3.507,1.107 -12.692,5.394 -14.399,6.72 -0.455,0.353 0.848,-0.176 2.896,-1.177 7.955,-3.889 16.864,-6.027 26.067,-6.257 l 5.296,-0.133 -3.144,0.436 c -6.478,0.896 -10.291,1.907 -18.537,4.914 -11.351,4.139 -15.949,6.956 -23.274,14.257 -2.729,2.721 -5.027,5.316 -5.472,6.18 l -0.767,1.49 0.772,-0.863 c 0.424,-0.475 1.624,-1.923 2.667,-3.218 2.402,-2.982 4.689,-4.787 9.742,-7.69 7.21,-4.143 12.569,-6.231 19.642,-7.655 3.404,-0.685 4.698,-0.764 12.248,-0.749 7.245,0.01 8.989,0.121 12.309,0.744 5.985,1.124 7.221,1.422 7.221,1.741 0,0.162 -0.485,0.187 -1.077,0.06 -1.952,-0.436 -24.675,-0.28 -27.391,0.187 -3.355,0.578 -9.663,2.102 -9.475,2.289 0.08,0.08 1.318,-0.05 2.744,-0.285 3.8,-0.639 16.614,-0.541 22.62,0.172 9.177,1.09 18.992,3.537 23.582,5.879 1.849,0.943 1.346,1.104 -0.991,0.318 -1.725,-0.582 -6.348,-1.744 -11.834,-2.976 -6.421,-1.442 -21.658,-2.146 -29.832,-1.377 -7.966,0.749 -15.298,2.469 -19.488,4.572 -1.592,0.799 -5.461,3.359 -5.461,3.613 0,0.07 0.781,-0.274 1.737,-0.758 6.321,-3.206 16.48,-5.08 27.567,-5.085 10.933,-0.01 22.245,1.985 35.077,6.172 6.43,2.098 21.829,7.684 25.819,9.367 4.302,1.814 19.523,9.396 19.127,9.528 -0.168,0.06 -2.282,-0.719 -4.698,-1.722 -9.678,-4.017 -20.617,-7.79 -29.226,-10.082 -3.331,-0.887 -8.366,-2.285 -11.187,-3.106 -12.445,-3.622 -19.781,-4.634 -36.743,-5.068 -8.979,-0.23 -9.33,-0.262 -7.282,-0.674 3.252,-0.655 14.72,-1.095 19.861,-0.763 5.573,0.359 6.552,0.353 4.965,-0.03 -2.08,-0.506 -11.62,-1.306 -15.537,-1.303 -15.998,0.01 -28.086,3.803 -35.733,11.207 -1.164,1.126 -2.058,2.106 -1.987,2.177 0.07,0.07 2.746,-1.17 5.942,-2.759 3.196,-1.589 7.221,-3.356 8.944,-3.928 4.601,-1.525 11.113,-2.749 15.691,-2.95 6.817,-0.297 20.519,0.413 26.156,1.357 5.306,0.888 10.061,2.026 10.575,2.529 0.405,0.396 0.563,0.412 -3.299,-0.337 -9.45,-1.835 -29.352,-2.207 -37.564,-0.702 -4.625,0.848 -10.152,2.382 -13.161,3.655 -10.396,4.397 -12.499,5.336 -12.949,5.785 -0.463,0.464 0.108,0.514 5.93,0.52 8.833,0.01 15.286,0.48 20.114,1.467 20.171,4.122 29.301,7.146 53.524,17.731 9.33,4.076 28.607,11.991 32.605,13.387 3.262,1.139 5.007,1.303 7.175,0.672 1.026,-0.298 6.497,-2.903 12.158,-5.789 5.661,-2.886 14.016,-6.908 18.568,-8.938 4.552,-2.03 11.522,-5.261 15.49,-7.181 3.968,-1.92 7.276,-3.43 7.351,-3.354 0.153,0.153 -10.079,5.753 -25.324,13.861 -11.57,6.154 -13.057,6.987 -19.276,10.8 -6.796,4.167 -7.798,4.577 -11.177,4.573 -3.239,0 -2.56,0.249 -17.709,-6.615 -29.491,-13.363 -44.041,-18.878 -61.072,-23.15 -13.403,-3.361 -19.176,-4.241 -27.97,-4.263 -4.411,-0.01 -8.222,0.474 -8.607,1.097 -0.1,0.161 0.268,0.159 0.836,0 1.99,-0.571 7.129,-0.733 10.916,-0.344 5.083,0.522 10.236,1.583 19.211,3.956 16.052,4.243 31.096,10.114 58.577,22.857 12.12,5.621 20.811,8.54 25.595,8.597 1.232,0.01 2.816,-0.275 4.391,-0.804 z m -5.161,-16.358 c 0,-1.485 3.979,-3.492 12.082,-6.096 4.775,-1.534 7.967,-2.442 9.599,-2.729 l 1.324,-0.233 -0.64,0.72 c -1.02,1.146 -8.102,4.414 -14.707,6.788 -6.535,2.348 -7.658,2.575 -7.658,1.55 z m -6.786,-0.914 c -3.799,-0.847 -15.014,-4.184 -24.299,-7.231 -15.46,-5.072 -24.413,-7.663 -33.173,-9.601 -5.227,-1.156 -16.019,-2.737 -21.474,-3.145 -4.474,-0.335 -9.841,-1.115 -10.21,-1.484 -0.937,-0.936 6.899,-1.046 13.355,-0.187 11,1.464 23.482,3.777 29.791,5.52 4.709,1.302 24.909,7.957 31.281,10.307 3.185,1.175 7.9,2.851 10.477,3.725 5.531,1.877 7.399,2.798 4.252,2.096 z m 4.138,-2.457 c -1.183,-0.362 -5.726,-1.834 -10.096,-3.271 -16.58,-5.454 -26.144,-8.403 -35.914,-11.072 -13.549,-3.701 -19.597,-4.776 -33.553,-5.966 -3.07,-0.262 -5.665,-0.558 -5.765,-0.659 -0.448,-0.448 0.506,-0.641 3.861,-0.779 4.179,-0.172 10.774,0.351 16.232,1.288 7.842,1.346 24.317,5.729 33.954,9.034 21.092,7.232 33.057,11.447 33.364,11.754 0.456,0.456 0.511,0.464 -2.083,-0.329 z m 4.112,-1.58 c 0.418,-0.677 7.11,-3.86 11.834,-5.629 6.986,-2.617 7.035,-2.039 0.109,1.288 -6.736,3.235 -12.57,5.356 -11.943,4.341 z m -9.574,-4.325 c -4.005,-1.421 -10.838,-4.021 -15.184,-5.779 -22.36,-9.045 -34.287,-11.785 -51.283,-11.784 -9.801,0 -16.082,0.42 -20.045,1.338 -2.603,0.603 -14.549,1.813 -14.857,1.506 -0.256,-0.256 2.117,-1.822 4.738,-3.128 3.083,-1.535 7.866,-3.024 13.16,-4.098 3.355,-0.68 4.586,-0.748 13.297,-0.73 12.424,0.02 27.45,1.332 35.484,3.086 4.554,0.994 15.289,4.197 19.795,5.905 7.582,2.876 22.361,9.598 23.833,10.842 l 0.662,0.559 -0.662,-0.222 c -0.364,-0.123 -3.493,-1.267 -6.951,-2.543 -3.46,-1.276 -9.492,-3.397 -13.407,-4.713 -3.913,-1.317 -10.096,-3.593 -13.736,-5.059 -12.524,-5.041 -14.409,-5.473 -28.633,-6.555 -10.709,-0.815 -19.714,-0.582 -27.309,0.707 -3.048,0.517 -6.703,1.592 -7.265,2.137 -0.423,0.411 -0.09,0.397 5.485,-0.228 3.855,-0.432 6.868,-0.498 15.849,-0.343 18.355,0.315 25.115,1.476 42.534,7.303 10.331,3.456 16.172,5.836 24.499,9.982 4.592,2.287 8.272,4.467 7.445,4.41 -0.09,-0.01 -3.443,-1.173 -7.449,-2.593 z m 11.093,-0.843 c -0.225,-0.271 -0.325,-0.712 -0.221,-0.981 0.396,-1.031 5.378,-3.104 13.126,-5.461 8.372,-2.546 24.475,-7.745 29.461,-9.51 2.822,-0.999 11.685,-4.427 19.695,-7.618 8.01,-3.191 14.788,-5.867 15.061,-5.948 1.611,-0.476 -5.928,3.127 -12.413,5.932 -4.187,1.811 -10.369,4.486 -13.737,5.945 -9.22,3.994 -17.906,7.353 -24.779,9.581 -3.394,1.101 -8.256,2.748 -10.805,3.66 -9.378,3.357 -13.91,4.892 -14.438,4.892 -0.298,0 -0.726,-0.222 -0.95,-0.492 z m 24.492,-2.455 c 0,-0.863 15.375,-8.161 24.329,-11.548 2.912,-1.102 8.932,-3.43 13.377,-5.175 4.446,-1.744 8.132,-3.121 8.192,-3.06 0.426,0.425 -29.91,14.072 -39.226,17.646 -4.109,1.576 -6.672,2.397 -6.672,2.137 z m -21.517,-4.831 c 0.598,-0.664 0.707,-0.962 0.392,-1.074 -0.24,-0.09 -0.83,-0.494 -1.31,-0.907 l -0.875,-0.752 1.807,-0.24 c 0.994,-0.131 5.233,-1.04 9.42,-2.019 10.532,-2.462 16.737,-3.752 16.543,-3.437 -0.09,0.146 -2.509,1.04 -5.374,1.985 -2.866,0.946 -8.094,2.903 -11.617,4.35 -3.781,1.551 -7.106,2.708 -8.11,2.822 l -1.703,0.192 z m -4.799,-3.715 c -1.416,-0.345 -11.501,-4.258 -16.22,-6.293 -7.138,-3.079 -12.404,-5.835 -11.973,-6.266 0.193,-0.193 8.327,2.245 12.229,3.665 9.05,3.293 17.784,7.624 17.784,8.818 0,0.326 -0.679,0.355 -1.82,0.08 z m 3.724,-0.861 c -0.319,-0.255 -0.58,-0.772 -0.58,-1.149 0,-0.756 0.372,-0.92 2.814,-1.242 12.11,-1.596 31.266,-7.146 53.955,-15.633 9.022,-3.375 11.395,-4.183 11.622,-3.956 0.405,0.406 -8.87,5.079 -16.422,8.273 -5.301,2.242 -9.86,3.751 -16.716,5.532 -2.184,0.568 -6.578,1.91 -9.765,2.982 -5.942,2 -19.258,5.262 -22.509,5.515 -1.244,0.1 -2.003,-0.01 -2.399,-0.322 z m -0.03,-4.689 c -0.547,-0.546 -0.548,-0.615 -0.02,-1.202 0.311,-0.342 0.781,-0.623 1.045,-0.623 0.318,0 0.218,-0.214 -0.296,-0.63 -0.767,-0.621 -0.77,-0.641 -0.151,-1.324 0.538,-0.595 1.008,-0.694 3.296,-0.694 2.46,0 2.625,0.04 2.13,0.537 -0.296,0.296 -1.332,0.824 -2.305,1.175 l -1.768,0.637 2.483,-0.204 c 2.225,-0.183 6.505,-0.951 23.005,-4.131 2.73,-0.526 7.27,-1.626 10.088,-2.445 2.817,-0.818 5.173,-1.437 5.235,-1.375 0.364,0.364 -13.262,4.898 -18.799,6.256 -8.644,2.119 -18.586,4.216 -20.868,4.401 -2.114,0.171 -2.588,0.113 -3.078,-0.378 z m -9.651,-7.968 c -14.34,-5.814 -28.635,-10.82 -38.598,-13.517 -8.165,-2.209 -18.598,-4.223 -24.46,-4.722 -2.787,-0.237 -2.8,-0.242 -1.332,-0.541 1.651,-0.337 8.562,0.126 14.241,0.954 4.497,0.655 11.658,2.209 16.882,3.663 4.804,1.338 18.5,6.422 26.699,9.91 5.593,2.38 14.346,6.604 14.346,6.923 0,0.405 -1.269,-0.03 -7.778,-2.67 z m 10.493,1.774 c -1.052,-1.052 0.173,-1.92 2.71,-1.92 2.349,0 7.337,-0.986 12.697,-2.511 2.794,-0.794 7.94,-2.061 11.436,-2.814 9.784,-2.109 10.661,-2.405 27.459,-9.251 3.007,-1.226 1.54,-0.307 -3.705,2.319 -13.941,6.981 -19.184,8.791 -34.963,12.073 -11.908,2.477 -14.863,2.875 -15.634,2.104 z m -22.416,-0.749 c -0.914,-0.418 -4.862,-1.955 -8.773,-3.416 -12.448,-4.649 -17.748,-6.909 -18.595,-7.93 -0.365,-0.44 -0.235,-0.471 1.066,-0.254 4.205,0.702 16.351,5.149 21.839,7.996 5.576,2.893 9.065,5.711 4.463,3.604 z m 79.324,-2.473 c 0.295,-0.186 2.38,-1.147 4.634,-2.136 2.254,-0.989 5.289,-2.35 6.745,-3.025 5.905,-2.736 24.661,-10.235 24.661,-9.86 0,0.275 -17.325,8.418 -23.877,11.224 -5.23,2.239 -14.074,5 -12.163,3.797 z m -56.726,-0.71 c -0.677,-0.395 -0.761,-1.397 -0.161,-1.896 0.231,-0.191 1.758,-0.443 3.393,-0.559 4.243,-0.302 9.208,-1.27 15.261,-2.977 2.89,-0.815 7.938,-2.081 11.215,-2.812 5.894,-1.314 10.811,-2.747 15.143,-4.413 2.44,-0.937 2.962,-0.755 0.994,0.347 -2.161,1.21 -6.047,2.617 -11.172,4.043 -2.731,0.76 -9.136,2.782 -14.233,4.494 -7.742,2.6 -9.913,3.196 -13.175,3.621 -4.505,0.587 -6.448,0.627 -7.265,0.152 z m -7.212,-4.429 c -0.462,-0.252 -3.292,-1.299 -6.29,-2.327 -5.767,-1.979 -12.235,-4.857 -12.235,-5.445 0,-0.586 1.186,-0.402 4.392,0.681 5.131,1.733 12.689,5.289 14.973,7.044 0.822,0.632 0.29,0.661 -0.84,0.05 z m 9.777,-0.313 c -1.719,-0.547 -4.989,-2.231 -6.437,-3.315 -1.455,-1.091 -1.234,-1.074 2.421,0.181 2.627,0.902 3.312,1.011 5.335,0.851 1.277,-0.101 2.992,-0.431 3.812,-0.734 0.819,-0.302 9.086,-3.131 18.371,-6.287 23.411,-7.956 24.755,-8.448 37.073,-13.566 15.041,-6.248 28.043,-11.46 28.199,-11.303 0.06,0.06 -1.201,0.715 -2.794,1.463 -19.142,8.988 -23.957,11.166 -42.238,19.105 -27.218,11.818 -38.411,15.3 -43.742,13.605 z m -28.632,-2.644 c -9.247,-3.19 -16.176,-5.983 -15.793,-6.366 0.21,-0.21 5.49,0.716 8.562,1.502 3.432,0.877 5.926,1.946 9.633,4.128 5.268,3.1 4.834,3.234 -2.402,0.736 z m 80.447,1.323 c 2.051,-1.955 17.195,-9.317 37.862,-18.404 3.656,-1.608 11.18,-4.945 16.721,-7.416 5.539,-2.471 10.137,-4.428 10.215,-4.35 0.199,0.199 -25.794,13.161 -34.026,16.967 -3.732,1.726 -10.137,4.636 -14.233,6.467 -4.096,1.831 -9.385,4.198 -11.751,5.26 -4.381,1.965 -5.742,2.385 -4.788,1.476 z m 21.67,-6.158 c -0.395,-0.638 0.3,-1.106 4.931,-3.316 5.294,-2.527 16.824,-7.608 17.267,-7.608 0.897,0 -10.73,6.343 -17.068,9.311 -4.293,2.01 -4.789,2.166 -5.13,1.613 z m 16.716,-20.002 c 1.547,-0.788 4.154,-1.997 5.792,-2.689 6.045,-2.549 24.156,-10.831 32.859,-15.026 4.933,-2.377 9.088,-4.322 9.233,-4.322 0.735,0 -3.205,2.195 -12.882,7.176 -15.205,7.828 -25.645,12.537 -34.058,15.364 -3.962,1.331 -4.249,1.178 -0.944,-0.503 z m -59.749,80.746 c 9.442,-3.341 23.999,-9.67 23.999,-10.435 0,-0.451 -0.455,-0.409 -1.726,0.16 -0.598,0.267 -5.163,2.057 -10.143,3.976 -9.75,3.756 -24.542,10.337 -24.542,10.918 0,0.08 1.378,-0.426 3.062,-1.125 1.684,-0.698 5.892,-2.27 9.35,-3.494 z m -108.918,-5.097 c -0.173,-0.162 -2.028,-1.401 -4.121,-2.755 -2.094,-1.353 -4.999,-3.318 -6.455,-4.367 -3.531,-2.543 -7.668,-4.473 -14.699,-6.855 -6.688,-2.267 -10.398,-3.273 -12.07,-3.273 -1.24,0 -2.857,0.587 -2.857,1.037 0,0.148 0.857,0.509 1.904,0.803 13.23,3.715 18.074,5.59 30.795,11.914 7.797,3.877 8.023,3.982 7.503,3.496 z m -24.975,-3.396 c -0.637,-0.558 -2.946,-2.356 -5.131,-3.997 -2.185,-1.64 -4.28,-3.226 -4.657,-3.523 -0.376,-0.298 -0.03,0.06 0.778,0.783 1.569,1.42 9.728,7.74 10.002,7.747 0.09,0 -0.355,-0.452 -0.992,-1.01 z m -36.966,-8.211 c -6.879,-3.462 -16.075,-9.693 -21.094,-14.293 l -2.205,-2.02 -1.969,0.142 c -1.083,0.08 -2.068,0.242 -2.19,0.364 -0.418,0.419 1.682,2.968 4.987,6.05 3.896,3.634 9.818,7.356 14.915,9.374 2.984,1.182 5.64,1.737 11.031,2.307 0.241,0.02 -1.323,-0.84 -3.475,-1.924 z m -20.3,-9.119 c 0,-0.273 0.15,-0.496 0.332,-0.496 0.182,0 0.331,0.223 0.331,0.496 0,0.273 -0.149,0.497 -0.331,0.497 -0.182,0 -0.332,-0.224 -0.332,-0.497 z m -3.765,-4.589 c -0.81,-0.333 -0.879,-0.452 -0.464,-0.796 0.394,-0.328 0.603,-0.278 1.088,0.258 0.772,0.853 0.569,1.028 -0.624,0.538 z m 59.155,7.534 c -4.17,-2.017 -7.352,-2.791 -12.4,-3.016 -4.176,-0.186 -5.916,-0.02 -5.916,0.556 0,0.169 1.541,0.305 3.429,0.302 4.445,-0.01 9.076,0.792 13.618,2.35 2.003,0.687 3.79,1.255 3.972,1.262 0.182,0.01 -1.035,-0.647 -2.703,-1.454 z m -28.436,-3.136 c -0.995,-1.1 -5.302,-3.862 -8.24,-5.284 -3.622,-1.753 -7.213,-2.944 -9.438,-3.131 l -1.827,-0.153 1.655,0.501 c 5.729,1.735 7.637,2.447 10.619,3.962 1.836,0.932 4.293,2.388 5.462,3.234 2.378,1.723 2.672,1.868 1.769,0.871 z m 6.744,-1.364 c 0.218,-0.219 0.396,-0.5 0.396,-0.626 0,-0.296 -6.788,-5.122 -10.505,-7.467 -7.926,-5.001 -15.021,-7.405 -21.82,-7.394 -4.558,0.01 -9.103,1.346 -10.125,2.982 -0.585,0.936 -1.596,0.811 -3.429,-0.421 -2.922,-1.966 -4.767,-5.324 -4.764,-8.667 0,-1.55 0.961,-3.339 1.962,-3.656 0.863,-0.274 0.86,-0.709 0,-2.142 -1.575,-2.584 -7.868,-7.755 -16.018,-13.163 -2.184,-1.449 -9.185,-5.731 -15.557,-9.514 -12.454,-7.393 -14.244,-8.548 -20.865,-13.455 -6.765,-5.015 -9.113,-7.989 -8.4,-10.641 0.337,-1.251 -0.123,-1.14 -1.329,0.324 -1.922,2.332 -1.255,4.129 3.275,8.82 4.639,4.804 10.886,9.355 27.319,19.904 3.641,2.337 10.493,6.801 15.227,9.92 4.733,3.118 9.148,5.999 9.81,6.402 1.537,0.934 2.14,1.65 1.734,2.056 -0.411,0.411 -3.694,-1.151 -6.807,-3.239 -2.429,-1.629 -6.133,-3.845 -15.29,-9.149 -5.21,-3.018 -5.934,-2.975 -1.198,0.07 11.68,7.513 17.701,11.532 19.364,12.928 1.423,1.193 1.84,1.375 2.979,1.295 l 1.325,-0.09 0.243,2.979 c 0.572,6.954 3.228,11.415 7.572,12.716 1.703,0.51 5.959,0.445 10.832,-0.167 8.711,-1.093 13.927,0.191 24.411,6.014 4.217,2.342 7.346,3.66 8.926,3.759 0.192,0.01 0.527,-0.157 0.745,-0.376 z m -7.727,-22.609 c 1.338,-10.648 5.387,-22.24 10.411,-29.806 2.289,-3.449 5.452,-7.457 6.225,-7.889 0.694,-0.389 -1.715,4.023 -4.225,7.739 -2.271,3.361 -4.033,6.322 -3.863,6.492 0.07,0.07 1.047,-1.051 2.176,-2.486 3.623,-4.599 10.85,-11.127 16.433,-14.843 12.909,-8.593 27.232,-11.12 52.796,-9.318 11.109,0.783 27.125,3.797 37.016,6.966 1.73,0.554 5.928,2.182 9.33,3.617 8.987,3.792 13.51,4.659 20.685,3.964 14.855,-1.438 30.627,-6.071 52.131,-15.315 10.823,-4.653 17.425,-7.342 23.835,-9.709 9.935,-3.669 19.418,-8.22 33.433,-16.045 19.931,-11.128 31.117,-18.792 46.507,-31.868 9.326,-7.923 14.219,-12.297 21.931,-19.6 l 5.942,-5.627 -11.95,-0.216 c -12.008,-0.217 -21.408,-0.816 -38.597,-2.461 -19.288,-1.845 -27.657,-4.251 -41.062,-11.806 -6.194,-3.49 -7.84,-4.001 -12.231,-3.8 -6.91,0.316 -11.17,2.491 -31.929,16.301 -9.838,6.545 -16.117,10.38 -26.711,16.317 -7.679,4.303 -34.563,17.506 -53.573,26.311 -3.733,1.729 -9.691,4.514 -13.241,6.188 -7.989,3.769 -18.882,8.706 -24.914,11.292 -11.854,5.081 -30.312,14.361 -39.099,19.657 -17.274,10.412 -28.48,22.853 -33.57,37.275 -1.359,3.85 -4.28,15.488 -4.87,19.404 -0.512,3.403 -0.667,10.068 -0.244,10.495 0.137,0.138 0.357,-1.439 0.488,-3.503 0.133,-2.064 0.465,-5.541 0.74,-7.726 z m 130.598,-48.632 c -1.183,-0.224 -3.306,-0.611 -4.717,-0.86 -3.669,-0.649 -3.258,-1.132 0.741,-0.87 3.417,0.224 6.647,1.063 6.878,1.787 0.155,0.485 -0.06,0.481 -2.902,-0.06 z m 33.433,-3.739 c -10.958,-4.263 -16.22,-6.493 -16.22,-6.876 0,-0.08 0.186,-0.09 0.414,-0.01 0.227,0.07 2.477,0.753 5,1.509 6.176,1.851 10.163,3.362 12.321,4.671 2.939,1.781 2.166,2.143 -1.515,0.71 z m -55.998,-3.244 c -4.928,-0.981 -4.791,-2.111 0.222,-1.835 1.899,0.105 7.465,1.333 8.441,1.862 0.737,0.4 0.431,0.447 -2.814,0.431 -2.002,-0.01 -4.635,-0.216 -5.849,-0.458 z m -2.095,-3.158 c -1.093,-0.143 -3.625,-0.487 -5.627,-0.766 -2.003,-0.279 -7.365,-0.753 -11.917,-1.053 -4.552,-0.301 -8.871,-0.651 -9.6,-0.778 -1.322,-0.231 -1.323,-0.232 -0.505,-0.679 2.049,-1.122 16.864,-0.693 23.671,0.684 3.632,0.735 6.833,1.884 7.043,2.528 0.147,0.452 -0.07,0.456 -3.065,0.06 z m 93.007,-0.471 c -5.253,-1.775 -15.591,-6.436 -14.845,-6.692 0.631,-0.218 10.387,3.143 13.197,4.546 2.781,1.388 4.408,2.476 4.126,2.758 -0.09,0.09 -1.208,-0.183 -2.478,-0.612 z m 7.289,-3.999 c -1.82,-0.986 -5.097,-2.488 -7.282,-3.336 -5.479,-2.127 -10.493,-4.708 -9.214,-4.743 0.78,-0.02 13.907,4.715 15.696,5.664 2.121,1.123 4.126,2.694 4.621,3.62 0.534,0.998 -0.161,0.779 -3.821,-1.205 z m -30.453,-2.296 c -1.092,-0.244 -4.221,-1.404 -6.951,-2.577 -2.73,-1.173 -6.874,-2.764 -9.207,-3.537 -2.332,-0.772 -4.168,-1.476 -4.08,-1.564 0.302,-0.302 7.552,1.252 10.257,2.198 3.285,1.149 13.653,5.398 13.987,5.734 0.376,0.375 -1.808,0.236 -4.006,-0.254 z m 31.943,-6.8 c -1.002,-0.518 -3.012,-1.431 -4.469,-2.028 -1.456,-0.598 -2.403,-1.136 -2.102,-1.196 0.753,-0.15 4.458,0.841 5.889,1.576 1.184,0.607 2.902,2.204 2.642,2.455 -0.08,0.07 -0.958,-0.289 -1.96,-0.807 z m -66.037,-13.092 c -4.787,-0.532 -8.11,-1.348 -8.11,-1.992 0,-0.638 3.993,-0.613 7.818,0.05 3.105,0.536 7.567,1.686 8.402,2.166 0.72,0.414 -3.401,0.301 -8.11,-0.222 z m 95.662,-2.806 c -1.456,-0.333 -5.329,-1.076 -8.606,-1.65 -6.708,-1.175 -10.212,-2.048 -19.033,-4.739 -9.292,-2.836 -23.196,-5.598 -37.736,-7.499 -6.537,-0.854 -8.937,-1.283 -8.937,-1.596 0,-0.297 5.765,-0.148 11.751,0.303 12.842,0.967 26.933,3.748 38.507,7.599 3.239,1.078 10.199,3.139 15.468,4.581 10.952,2.997 15.451,4.57 8.586,3.001 z m -44.355,-0.205 c -3.241,-0.286 -18.973,-2.715 -23.452,-3.621 -0.519,-0.104 -0.816,-0.313 -0.662,-0.462 0.448,-0.434 9.359,0.23 15.673,1.167 6.138,0.911 10.774,1.897 12.413,2.64 0.978,0.443 0.965,0.45 -0.828,0.421 -1.001,-0.02 -2.416,-0.08 -3.144,-0.145 z m 21.942,-1.603 c -1.768,-0.241 -5.938,-0.964 -9.268,-1.606 -3.329,-0.642 -9.405,-1.631 -13.501,-2.196 -4.097,-0.566 -9.01,-1.329 -10.919,-1.697 -4.003,-0.771 -5.479,-1.407 -2.653,-1.143 1.001,0.09 5.172,0.399 9.268,0.678 4.096,0.279 8.78,0.664 10.407,0.855 7.22,0.85 20.168,4.143 20.891,5.313 0.228,0.37 -0.153,0.351 -4.225,-0.204 z m 39.802,-1.842 c -2.37,-0.464 -14.76,-4.424 -14.188,-4.534 0.829,-0.16 13.669,2.801 15.324,3.533 1.503,0.665 2.011,1.396 0.923,1.327 -0.319,-0.02 -1.245,-0.166 -2.059,-0.326 z m 6.659,-6.954 c -3.591,-0.754 -16.304,-4.188 -16.579,-4.479 -0.249,-0.263 1.701,0.06 8.42,1.395 5.87,1.167 10.989,2.529 12.41,3.302 l 0.831,0.452 -0.994,-0.01 c -0.546,-0.01 -2.385,-0.303 -4.088,-0.66 z m -39.606,-0.668 c -12.364,-1.536 -26.977,-4.232 -26.977,-4.977 0,-0.375 0.428,-0.359 6.326,0.232 11.979,1.199 24.225,3.504 25.601,4.816 0.379,0.362 -1.7,0.332 -4.95,-0.07 z m 37.509,-5.58 c -12.787,-2.593 -14.329,-2.939 -14.101,-3.167 0.398,-0.398 18.243,2.367 22.52,3.489 2.706,0.71 6.207,1.938 6.207,2.178 0,0.376 -2.801,-0.103 -14.626,-2.5 z m 19.757,-2.226 c -2.122,-0.287 -11.57,-2.485 -14.777,-3.438 -3.462,-1.028 -8.906,-3.33 -8.331,-3.522 0.178,-0.06 1.948,0.401 3.937,1.022 1.987,0.621 6.444,1.677 9.902,2.347 9.7,1.877 10.952,2.161 11.59,2.628 0.327,0.238 0.487,0.605 0.358,0.815 -0.234,0.378 -0.762,0.407 -2.679,0.148 z m -77.788,-2.929 c -1.82,-0.245 -5.469,-0.918 -8.11,-1.495 -4.834,-1.056 -6.532,-1.602 -5.042,-1.622 1.481,-0.02 12.398,1.896 16.105,2.826 0.743,0.187 1.274,0.863 0.606,0.771 -0.137,-0.02 -1.738,-0.235 -3.559,-0.48 z m 21.02,-0.312 c -4.603,-0.509 -17.313,-2.477 -17.545,-2.718 -0.19,-0.198 2.362,0.02 10.926,0.918 7.481,0.788 11.898,1.484 12.361,1.947 0.439,0.44 -0.691,0.411 -5.742,-0.147 z m 5.627,-5.978 c -5.081,-0.718 -10.911,-1.845 -11.098,-2.146 -0.09,-0.154 0.316,-0.211 0.912,-0.127 0.595,0.08 3.913,0.527 7.372,0.986 3.459,0.458 7.183,1.036 8.276,1.284 l 1.985,0.45 h -2.151 c -1.184,0 -3.567,-0.202 -5.296,-0.446 z m -16.551,-0.856 c -1.001,-0.165 -3.31,-0.534 -5.131,-0.82 -5.77,-0.906 -16.649,-3.666 -17.495,-4.438 -0.314,-0.287 -0.241,-0.274 15.344,2.834 6.099,1.216 11.23,2.344 11.403,2.506 0.39,0.367 -1.64,0.326 -4.121,-0.08 z m -0.828,-7.407 c -2.548,-0.233 -5.585,-0.671 -6.748,-0.974 -2.37,-0.618 -4.766,-1.518 -4.568,-1.716 0.07,-0.07 1.678,0.162 3.572,0.519 1.892,0.356 4.633,0.815 6.089,1.019 4.953,0.693 6.786,1.06 6.786,1.358 0,0.163 -0.112,0.279 -0.248,0.257 -0.137,-0.02 -2.334,-0.23 -4.883,-0.463 z m 35.253,-2.328 c -6.889,-0.674 -9.032,-1.041 -19.36,-3.315 -5.281,-1.163 -12.508,-2.579 -16.058,-3.146 -8.701,-1.389 -9.217,-1.557 -4.917,-1.598 6.852,-0.07 10.85,0.564 25.771,4.062 4.278,1.002 9.64,2.132 11.917,2.509 5.385,0.894 7.282,1.337 7.282,1.703 0,0.164 -0.04,0.281 -0.08,0.26 -0.05,-0.02 -2.094,-0.235 -4.551,-0.475 z m -277.602,128.609 c -2.164,-4.012 -6.976,-9.477 -13.306,-15.114 -6.334,-5.64 -10.636,-8.644 -19.642,-13.717 -8.705,-4.902 -19.453,-11.348 -22.156,-13.287 -2.969,-2.13 -3.874,-2.663 -2.301,-1.355 2.683,2.231 9.783,6.975 15.839,10.582 10.362,6.173 20.532,12.871 26.72,17.598 4.972,3.798 10.834,10.161 14.176,15.388 0.905,1.414 1.713,2.503 1.795,2.42 0.08,-0.08 -0.423,-1.215 -1.125,-2.515 z m 20.589,-0.789 c -0.483,-6.405 -1.265,-10.308 -3.392,-16.914 -3.982,-12.359 -12.094,-26.42 -21.774,-37.735 -1.401,-1.639 -6.556,-7.016 -11.455,-11.95 -8.541,-8.6 -9.131,-9.121 -14.289,-12.61 -2.958,-2.002 -7.986,-5.099 -11.172,-6.882 -3.186,-1.784 -6.506,-3.688 -7.378,-4.232 -0.872,-0.544 -1.663,-0.91 -1.759,-0.814 -0.271,0.271 1.7,1.647 5.33,3.724 10.822,6.191 23.901,16.201 31.853,24.378 4.428,4.552 6.49,6.92 10.332,11.861 13.014,16.736 19.798,30.93 22.013,46.053 0.283,1.935 0.515,4.554 0.515,5.821 0,2.473 0.119,2.804 0.899,2.505 0.422,-0.163 0.466,-0.674 0.277,-3.205 z m -4.284,0.423 c -0.489,-5.853 -3.151,-16.408 -5.874,-23.288 -2.667,-6.736 -8.694,-17.203 -14.966,-25.992 -8.749,-12.259 -18.17,-20.933 -33.317,-30.675 -4.712,-3.03 -10.213,-6.349 -12.247,-7.389 -1.624,-0.83 -0.425,-0.01 3.141,2.155 4.919,2.983 8.774,5.704 14.61,10.313 14.413,11.381 19.477,16.271 25.817,24.934 11.544,15.774 16.783,26.056 19.806,38.871 1.025,4.347 1.504,7.891 1.504,11.136 0,2.616 0,2.624 0.875,2.624 h 0.876 z m 27.933,-7.903 c 3.444,-5.045 8.136,-9.303 16.055,-14.571 6.679,-4.443 11.989,-7.078 17.934,-8.901 4.524,-1.386 5.942,-1.474 16.827,-1.036 10.994,0.442 15.467,0.901 22.674,2.327 15.621,3.09 26.395,7.174 43.749,16.584 1.944,1.054 4.029,2.009 4.634,2.122 2.057,0.385 19.315,-5.132 38.338,-12.257 21.095,-7.899 24.13,-9.101 43.694,-17.291 20.675,-8.657 33.436,-14.398 52.961,-23.827 3.187,-1.538 7.581,-3.62 9.765,-4.626 17.696,-8.149 25.532,-12.438 33.049,-18.087 3.469,-2.607 7.456,-5.258 9.953,-6.619 2.706,-1.474 4.169,-2.461 4.172,-2.814 0,-0.299 0.1,-0.893 0.212,-1.321 l 0.208,-0.777 -1.123,0.578 c -0.617,0.319 -2.389,1.426 -3.936,2.461 -5.888,3.937 -18.141,11.097 -25.717,15.029 -4.334,2.249 -9.708,5.149 -11.94,6.445 -6.513,3.779 -8.717,4.777 -5.539,2.507 3.225,-2.304 10.539,-6.818 17.963,-11.086 4.138,-2.379 7.673,-4.477 7.855,-4.663 0.182,-0.186 -1.725,0.734 -4.238,2.044 -2.513,1.311 -4.668,2.285 -4.788,2.164 -0.461,-0.461 0.55,-1.321 3.901,-3.317 1.908,-1.136 5.63,-3.349 8.27,-4.918 2.639,-1.568 6.85,-4.16 9.355,-5.759 2.506,-1.6 6.243,-3.849 8.305,-4.997 5.947,-3.312 11.634,-8.67 9.201,-8.67 -0.746,0 -2.787,1.471 -4.353,3.137 -2.092,2.226 -6.867,5.156 -8.344,5.12 -0.729,-0.02 -0.721,-0.05 0.213,-0.745 3.405,-2.546 4.777,-4.371 4.157,-5.529 -0.193,-0.362 -0.453,-0.659 -0.576,-0.659 -0.124,0 -0.863,0.627 -1.644,1.393 -1.206,1.184 -1.419,1.29 -1.419,0.709 0,-0.377 0.45,-1.528 1,-2.559 0.919,-1.722 0.962,-1.946 0.536,-2.759 l -0.464,-0.885 -0.671,1.306 c -1.196,2.326 -2.604,3.984 -5.085,5.988 -5.016,4.051 -11.622,8.42 -20.307,13.431 -4.177,2.41 -7.129,4.018 -26.316,14.33 -5.007,2.691 -12.454,6.752 -16.55,9.024 -14.113,7.829 -20.97,11.184 -28.205,13.799 -3.695,1.335 -8.629,3.192 -10.966,4.126 -15.573,6.223 -52.843,19.18 -62.119,21.595 -6.412,1.67 -11.029,2.009 -15.095,1.11 -3.925,-0.868 -12.367,-3.661 -16.838,-5.571 -2.18,-0.931 -5.382,-2.075 -7.117,-2.542 -3.074,-0.827 -3.154,-0.873 -3.154,-1.819 0,-0.953 -0.07,-0.989 -3.783,-2.054 -2.081,-0.596 -5.433,-1.382 -7.448,-1.747 -4.443,-0.805 -6.051,-1.242 -6.35,-1.725 -0.252,-0.41 3.421,-0.148 6.326,0.45 5.658,1.165 28.332,8.588 35.306,11.558 3.615,1.54 4.409,1.757 6.899,1.881 3.164,0.159 4.553,-0.127 13.737,-2.826 20.375,-5.987 31.163,-9.467 47.58,-15.35 7.147,-2.562 16.346,-5.772 20.443,-7.134 4.095,-1.363 8.453,-2.917 9.683,-3.455 2.652,-1.16 14.249,-7.589 21.326,-11.822 2.764,-1.653 10.286,-5.971 16.716,-9.596 24.961,-14.072 41.49,-24.26 45.487,-28.041 l 1.623,-1.533 -1.655,1.317 c -2.697,2.147 -6.894,4.982 -13.452,9.086 -6.753,4.227 -8.423,5.127 -8.805,4.746 -0.43,-0.43 3.157,-3.168 13.981,-10.675 7.73,-5.362 11.458,-8.757 14.223,-12.955 0.697,-1.057 1.831,-4.474 1.831,-5.513 0,-0.187 -2.348,2.041 -5.22,4.952 -6.297,6.383 -9.629,9.287 -18.944,16.51 -14.745,11.433 -25.046,18.157 -44.024,28.737 -12.206,6.805 -22.536,11.68 -46.673,22.025 -14.404,6.174 -38.327,13.916 -58.092,18.8 -4.24,1.047 -10.586,1.45 -13.389,0.849 -0.956,-0.205 -4.517,-1.547 -7.912,-2.982 -7.546,-3.188 -12.321,-4.732 -22.584,-7.3 -7.762,-1.943 -11.692,-2.59 -20.166,-3.317 -2.276,-0.196 -4.757,-0.441 -5.512,-0.545 -1.21,-0.167 -1.402,-0.103 -1.605,0.539 -0.214,0.674 -0.371,0.712 -2.102,0.51 -1.473,-0.173 -2.028,-0.408 -2.611,-1.11 l -0.74,-0.891 h -12.004 c -12.978,0 -16.025,0.281 -22.011,2.016 -5.52,1.6 -13.497,6.197 -19.076,10.994 -6.48,5.573 -12.711,13.979 -15.382,20.751 -1.978,5.017 -1.942,5.716 0.08,1.655 3.811,-7.623 14.049,-19.592 20.877,-24.403 8.023,-5.652 14.301,-8.729 19.708,-9.659 4.438,-0.763 13.785,-0.9 12.996,-0.191 -0.146,0.131 -1.68,0.489 -3.409,0.797 -3.941,0.701 -11.677,2.525 -11.492,2.71 0.08,0.08 1.389,-0.158 2.919,-0.521 7.976,-1.893 15.03,-2.446 21.151,-1.66 2.966,0.381 11.141,1.972 16.882,3.286 2.275,0.521 4.957,1.092 5.958,1.269 4.423,0.783 13.481,3.251 13.147,3.584 -0.128,0.128 -5.08,-0.716 -6.277,-1.069 -0.42,-0.124 -0.522,-0.03 -0.378,0.348 0.262,0.681 0.06,0.663 -3.572,-0.309 -7.578,-2.032 -25.307,-3.822 -31.269,-3.157 -8.029,0.896 -18.346,3.96 -25.515,7.579 -2.456,1.24 -3.07,1.964 -0.852,1.004 2.023,-0.875 12.233,-3.422 17.263,-4.307 4.959,-0.872 12.886,-1.152 18.525,-0.653 8.495,0.751 15.29,2.335 24.079,5.613 4.331,1.615 7.219,2.959 5.442,2.531 -4.127,-0.993 -21.261,-4.61 -24.215,-5.112 -10.616,-1.804 -16.828,-1.768 -28.045,0.16 -10.553,1.813 -16.564,3.95 -23.252,8.265 -5.82,3.754 -12.625,11.864 -17.216,20.513 -1.968,3.707 -3.93,7.9 -3.927,8.393 0,0.119 0.933,-1.497 2.071,-3.591 1.138,-2.094 3.035,-5.222 4.217,-6.951 z m 119.457,-7.077 c -2.384,-0.852 -5.257,-2.896 -5.257,-3.739 0,-0.56 0.421,-0.552 2.754,0.06 3.804,0.991 5.773,2.517 4.669,3.62 -0.613,0.613 -0.624,0.613 -2.166,0.06 z m 6.429,-0.09 c -0.315,-0.818 0.957,-1.673 3.663,-2.466 1.299,-0.381 5.041,-1.514 8.318,-2.517 3.277,-1.004 7.225,-2.212 8.772,-2.683 1.547,-0.472 8.007,-2.602 14.354,-4.734 6.347,-2.132 11.411,-3.762 11.254,-3.623 -0.299,0.265 -9.548,4.54 -13.526,6.251 -9.701,4.174 -22.214,8.575 -27.432,9.649 -3.997,0.822 -5.125,0.848 -5.403,0.123 z m -0.322,-4.609 c -0.373,-0.973 0.823,-1.554 6.073,-2.954 17.969,-4.791 17.947,-4.785 33.539,-9.502 9.716,-2.94 21.692,-7.009 30.288,-10.292 5.778,-2.207 17.788,-6.82 19.492,-7.489 0.526,-0.206 1.016,-0.315 1.088,-0.243 0.285,0.285 -14.891,6.784 -23.718,10.157 -14.636,5.594 -55.152,19.157 -60.799,20.354 -3.113,0.659 -5.703,0.646 -5.963,-0.03 z m -4.413,-0.37 c -0.273,-0.1 -5.27,-2.235 -11.106,-4.75 -5.835,-2.514 -12.538,-5.339 -14.895,-6.278 -4.636,-1.846 -6.265,-2.711 -6.562,-3.482 -0.15,-0.392 0,-0.449 0.712,-0.277 1.56,0.377 11.006,3.933 14.804,5.574 2.002,0.865 5.95,2.356 8.772,3.313 2.822,0.957 6.335,2.207 7.807,2.779 2.674,1.039 4.373,2.325 3.96,2.996 -0.225,0.363 -2.593,0.447 -3.492,0.125 z m -0.496,-4.864 c -1.674,-0.526 -5.589,-2.499 -10.569,-5.326 -4.405,-2.501 -5.944,-3.202 -8.299,-3.781 -1.78,-0.437 -3.145,-1.173 -3.145,-1.695 0,-1.029 5.391,0.347 10.222,2.61 2.297,1.076 6.738,2.808 9.866,3.849 6.152,2.045 7.074,2.614 6.453,3.977 -0.319,0.7 -0.593,0.823 -1.79,0.804 -0.778,-0.01 -2.01,-0.209 -2.738,-0.438 z m 8.123,-0.02 c -0.22,-0.264 -0.303,-0.784 -0.185,-1.155 0.257,-0.81 1.497,-1.172 8.997,-2.625 9.944,-1.926 33.545,-9.1 57.625,-17.516 3.14,-1.098 5.71,-1.942 5.71,-1.876 0,0.284 -7.843,3.484 -18.086,7.38 -7.859,2.988 -32.773,11.391 -39.84,13.437 -9.509,2.753 -13.362,3.391 -14.221,2.355 z m -23.622,-5.271 c -1.242,-0.423 -2.579,-1.09 -2.97,-1.481 l -0.711,-0.712 h 1.013 c 1.277,0 5.092,1.879 5.092,2.509 0,0.259 -0.04,0.467 -0.09,0.462 -0.05,-0.01 -1.099,-0.355 -2.341,-0.778 z m -18.32,-9.965 c -1.306,-0.237 -2.557,-0.544 -2.782,-0.683 -0.584,-0.361 0.572,-1.144 1.69,-1.144 1.079,0 4.364,1.105 5.362,1.804 0.713,0.5 0.698,0.512 -0.582,0.483 -0.723,-0.02 -2.383,-0.223 -3.688,-0.46 z m -7.214,-1.943 c -0.552,-0.403 -0.511,-0.432 0.432,-0.293 0.575,0.08 1.045,0.285 1.045,0.447 0,0.436 -0.782,0.355 -1.477,-0.154 z m -9.363,-3.082 c -0.924,-0.373 -0.32,-0.774 1.157,-0.77 1.84,0.01 3.063,0.284 3.063,0.696 0,0.305 -3.497,0.366 -4.22,0.07 z m 174.847,-21.614 c 0.272,-0.44 4.19,-2.772 30.297,-18.038 6.463,-3.779 13.091,-7.696 14.73,-8.704 6.92,-4.257 13.671,-8.562 15.03,-9.585 0.802,-0.604 1.521,-1.036 1.596,-0.96 0.08,0.08 -0.1,0.598 -0.389,1.16 -0.897,1.735 -4.254,4.028 -18.223,12.45 -2.277,1.373 -26.209,15.159 -31.499,18.145 -2.908,1.642 -11.207,5.849 -11.536,5.849 -0.111,0 -0.113,-0.143 0,-0.317 z m -285.528,66.768 c -5.099,-10.126 -13.512,-19.198 -25.614,-27.624 -7.495,-5.219 -21.118,-13.687 -25.991,-16.156 -2.683,-1.359 -7.248,-4.242 -10.328,-6.522 -1.507,-1.115 -2.529,-1.771 -2.27,-1.456 1.602,1.949 14.409,10.598 27.905,18.846 4.901,2.995 12.489,8.333 12.984,9.134 0.123,0.2 -1.163,-0.509 -2.859,-1.576 -2.63,-1.654 -7.913,-4.601 -17.067,-9.52 -3.478,-1.868 -2.314,-0.98 2.483,1.894 5.468,3.277 19.395,12.516 23.087,15.315 8.232,6.242 13.311,11.414 16.859,17.168 0.87,1.411 1.642,2.566 1.717,2.566 0.08,0 -0.333,-0.931 -0.906,-2.069 z m 93.626,0.214 c -0.11,-0.11 -0.395,-0.122 -0.634,-0.03 -0.264,0.105 -0.186,0.184 0.2,0.2 0.349,0.01 0.544,-0.06 0.434,-0.174 z m -68.223,-9.565 c 0.819,-2.782 1.224,-4.915 1.351,-7.117 0.172,-2.954 0.118,-3.325 -0.895,-6.124 -1.233,-3.407 -1.539,-4.959 -1.04,-5.267 0.6,-0.371 1.483,1.441 2.376,4.879 l 0.862,3.315 0.55,-1.96 c 1.084,-3.859 3.968,-9.026 7.706,-13.804 l 1.755,-2.244 -0.816,-2.169 c -1.425,-3.786 -6.774,-16.081 -8.168,-18.774 -0.737,-1.426 -2.065,-3.585 -2.95,-4.8 -2.418,-3.316 -11.033,-12.437 -15.952,-16.888 -2.393,-2.165 -8.148,-7.363 -12.791,-11.552 -4.642,-4.189 -8.878,-8.081 -9.413,-8.649 -3.095,-3.289 3.661,1.703 14.544,10.746 9.475,7.873 19.03,18.247 25.369,27.542 3.553,5.211 6.502,11.332 8.712,18.081 l 1.92,5.868 1.017,-1.265 c 4,-4.977 11.48,-11.627 19.678,-17.493 0.108,-0.08 -0.843,-1.578 -4.178,-6.585 -1.609,-2.417 -2.284,-3.696 -2.001,-3.79 0.858,-0.286 5.092,5.383 6.148,8.232 0.304,0.82 0.591,1.543 0.639,1.608 0.05,0.06 2.292,-1.289 4.989,-3.008 10.923,-6.963 24.726,-14.134 35.554,-18.473 l 5.928,-2.376 -0.839,-1.536 c -0.462,-0.845 -1.871,-2.952 -3.132,-4.682 -4.917,-6.742 -8.118,-11.294 -8.215,-11.679 -0.145,-0.582 3.418,3.25 5.006,5.381 2.151,2.887 4.293,6.237 5.996,9.372 1.825,3.361 1.168,3.28 6.627,0.816 2.012,-0.908 7.009,-3.11 11.105,-4.892 29.83,-12.979 36.091,-15.896 54.12,-25.215 15.458,-7.989 24.322,-13.119 32.355,-18.723 3.908,-2.726 3.961,-2.809 4.403,-6.863 0.297,-2.734 -0.277,-5.46 -1.833,-8.711 -3.171,-6.624 -7.656,-11.55 -15.726,-17.268 -12.612,-8.937 -23.699,-17.825 -31.65,-25.372 -4.293,-4.074 -4.006,-3.997 -9.162,-2.446 -2.369,0.712 -9.562,2.425 -15.985,3.806 -18.247,3.924 -22.983,5.223 -34.066,9.345 -12.572,4.676 -22.965,10.008 -38.563,19.785 -11.202,7.021 -17.401,10.706 -23.854,14.179 -17.727,9.539 -33.723,14.375 -59.891,18.105 -14.339,2.045 -23.404,3.96 -30.666,6.48 -6.981,2.423 -11.877,5.835 -13.69,9.54 -1.196,2.445 -0.947,3.154 1.777,5.084 1.207,0.855 3.61,2.684 5.34,4.064 17.788,14.186 15.832,12.567 22.247,18.427 5.239,4.789 19.21,19.281 23.982,24.878 7.082,8.307 13.469,17.691 17.512,25.728 3.416,6.792 5.597,12.274 8.137,20.455 1.237,3.985 2.328,7.324 2.425,7.42 0.09,0.1 0.175,-0.558 0.177,-1.453 0,-2.656 0.403,-6.096 0.707,-6.096 0.156,0 0.304,0.484 0.33,1.076 0.03,0.592 0.212,-0.104 0.414,-1.545 0.212,-1.515 0.541,-2.679 0.78,-2.759 0.323,-0.107 0.422,1.566 0.448,7.586 l 0.03,7.724 0.645,-1.986 c 0.354,-1.092 1.17,-3.774 1.812,-5.958 z m -3.185,-10.904 c 0,-0.7 0.56,-0.928 0.792,-0.322 0.283,0.738 0.26,0.799 -0.296,0.799 -0.273,0 -0.496,-0.215 -0.496,-0.477 z m -4.708,-19.391 c -0.285,-0.451 -1.343,-2.161 -2.349,-3.799 -1.007,-1.639 -2.661,-4.086 -3.677,-5.438 -1.015,-1.352 -1.845,-2.58 -1.845,-2.73 0,-0.771 1.406,-0.09 2.728,1.324 2.035,2.177 3.114,3.964 4.615,7.654 1.265,3.11 1.522,4.561 0.528,2.989 z m 1.152,-9.675 c -1.312,-2.594 -3.593,-6.989 -5.069,-9.766 -1.477,-2.777 -2.624,-5.232 -2.549,-5.457 0.162,-0.482 2.761,2.968 4.57,6.065 2.116,3.623 6.314,13.875 5.682,13.875 -0.136,0 -1.322,-2.123 -2.634,-4.717 z m 26.944,-1.759 c -1.199,-2.79 -2.398,-5.138 -5.978,-11.703 -0.836,-1.533 -1.45,-2.857 -1.364,-2.943 0.799,-0.799 5.56,7.794 8.174,14.751 1.147,3.051 0.488,2.968 -0.832,-0.105 z m -8.691,-2.354 c -0.689,-1.242 -2.311,-3.972 -3.607,-6.066 -3.872,-6.262 -4.236,-6.951 -3.666,-6.951 0.619,0 3.474,3.994 5.088,7.117 1.856,3.592 3.76,7.837 3.59,8.006 -0.08,0.08 -0.717,-0.863 -1.405,-2.106 z m 9.869,-14.029 c -1.666,-2.447 -4.595,-6.162 -6.508,-8.256 -1.913,-2.094 -3.482,-3.919 -3.487,-4.055 -0.03,-0.907 3.133,1.274 5.407,3.73 3.001,3.242 8.1,11.584 7.741,12.664 -0.07,0.201 -1.486,-1.636 -3.153,-4.083 z m -26.608,-10.116 c -1.699,-1.569 -3.908,-3.534 -4.91,-4.366 -2.355,-1.956 -7.944,-7.419 -7.944,-7.765 0,-0.929 5.691,3.764 10.927,9.013 3.409,3.416 5.624,5.971 5.177,5.971 -0.09,0 -1.551,-1.284 -3.25,-2.853 z m -21.791,-1.487 c -8.116,-7.701 -17.831,-15.052 -36.016,-27.248 -3.036,-2.036 -4.037,-2.948 -4.037,-3.679 0,-1.21 8.02,3.75 19.199,11.874 10.029,7.289 17.565,13.648 20.983,17.707 1.778,2.111 3.416,4.385 3.13,4.346 -0.07,-0.01 -1.53,-1.359 -3.259,-3 z m 31.244,1.278 c -0.89,-0.774 -4.523,-4.091 -8.074,-7.372 -8.808,-8.14 -14.548,-12.83 -21.002,-17.158 -3.051,-2.047 -2.173,-1.955 1.592,0.167 6.315,3.557 10.457,6.699 18.142,13.764 4.341,3.991 11.529,11.357 11.529,11.815 0,0.47 -0.686,0.09 -2.187,-1.216 z m 57.981,-2.2 c -1.015,-2.022 -2.94,-5.426 -4.279,-7.565 -2.836,-4.532 -3.935,-6.608 -3.766,-7.116 0.325,-0.977 5.37,6.831 7.867,12.177 2.989,6.399 3.13,8.392 0.178,2.504 z m 5.935,0.379 c -0.711,-2.467 -2.777,-6.883 -4.169,-8.911 -1.597,-2.325 -5.362,-6.538 -10.895,-12.191 -4.806,-4.909 -6.303,-6.859 -5.597,-7.295 0.464,-0.287 7.777,6.95 12.006,11.881 5.716,6.666 7.994,10.398 9.18,15.035 0.718,2.807 0.775,3.385 0.331,3.385 -0.169,0 -0.554,-0.857 -0.856,-1.904 z m 18.599,-8.272 c -0.298,-0.684 -0.684,-1.636 -0.855,-2.115 -0.303,-0.839 -0.363,-0.857 -1.687,-0.504 -1.235,0.33 -1.355,0.452 -1.19,1.202 0.101,0.459 0.265,1.207 0.365,1.662 0.1,0.456 -0.115,0.195 -0.476,-0.579 -0.724,-1.555 -0.879,-1.629 -1.9,-0.914 -0.755,0.529 -2.424,1.229 -2.424,1.017 0,-0.07 0.751,-0.59 1.668,-1.155 l 1.667,-1.026 -1.712,-3.333 c -0.942,-1.834 -2.511,-4.447 -3.486,-5.806 -1.018,-1.419 -1.469,-2.258 -1.059,-1.971 1.471,1.03 3.678,4.108 5.283,7.368 l 1.657,3.364 1.473,-0.501 1.473,-0.502 -0.725,-1.208 c -2.103,-3.502 -4.321,-6.237 -9.681,-11.94 -3.25,-3.458 -6.133,-6.607 -6.407,-6.998 -1.133,-1.616 0.895,0.08 5.235,4.392 5.219,5.179 7.937,8.47 10.273,12.441 0.934,1.586 1.718,2.908 1.744,2.938 0.03,0.03 1.206,-0.392 2.625,-0.94 l 2.58,-0.996 -1.047,-1.873 c -0.576,-1.03 -2.087,-3.336 -3.357,-5.124 -1.27,-1.788 -2.215,-3.345 -2.101,-3.459 0.115,-0.115 1.101,0.729 2.192,1.876 1.383,1.453 2.441,3.026 3.497,5.197 0.833,1.711 1.585,3.112 1.671,3.112 0.293,0 11.694,-4.709 11.694,-4.83 0,-1.22 -5.499,-12.381 -8.215,-16.673 -1.509,-2.387 -1.523,-3.108 -0.03,-1.334 2.38,2.817 6.398,10.347 7.908,14.82 0.727,2.153 1.107,2.861 1.498,2.785 0.619,-0.119 6.801,-2.624 7.022,-2.845 0.08,-0.08 -0.291,-0.795 -0.831,-1.582 -1.963,-2.856 -4.736,-7.635 -4.625,-7.97 0.237,-0.711 5.102,6.637 5.691,8.594 0.25,0.835 0.177,0.852 4.249,-1.012 l 2.577,-1.179 -1.299,-2.58 c -0.714,-1.418 -2.73,-4.725 -4.482,-7.348 -1.752,-2.622 -3.129,-4.824 -3.061,-4.892 0.221,-0.222 3.825,3.861 5.223,5.919 1.329,1.958 3.928,7.135 3.928,7.826 0,0.85 0.871,0.657 3.565,-0.789 10.282,-5.52 13.413,-7.3 13.572,-7.716 0.532,-1.386 -2.907,-9.442 -6.515,-15.259 -0.909,-1.465 -1.548,-2.66 -1.421,-2.655 0.406,0.01 3.323,4.086 4.856,6.777 1.501,2.633 3.399,7.398 3.724,9.352 0.1,0.591 0.301,1.075 0.449,1.075 0.147,0 1.451,-0.691 2.897,-1.536 l 2.629,-1.537 -0.957,-2.321 c -2.013,-4.884 -4.809,-9.55 -10.589,-17.678 -2.924,-4.113 -5.144,-7.937 -4.805,-8.277 0.09,-0.09 0.868,0.929 1.724,2.268 0.856,1.339 3.533,5.265 5.948,8.724 4.896,7.011 6.647,10.05 8.131,14.117 0.555,1.519 1.061,2.814 1.124,2.878 0.08,0.09 2.288,-1.279 3.41,-2.118 0.168,-0.125 -3.753,-7.808 -5.42,-10.622 -2.423,-4.088 -2.64,-5.199 -0.588,-3.014 2.165,2.307 5.125,7.601 6.291,11.252 0.591,1.85 0.971,2.227 1.617,1.602 0.173,-0.167 3.039,-1.668 6.369,-3.336 6.811,-3.412 6.328,-2.76 4.79,-6.456 -0.455,-1.092 -1.712,-3.752 -2.794,-5.91 -1.082,-2.159 -1.894,-3.997 -1.806,-4.086 0.246,-0.245 2.135,2.47 3.26,4.685 0.55,1.085 1.518,3.319 2.149,4.966 0.633,1.646 1.257,3.107 1.388,3.245 0.209,0.22 3.483,-0.717 4.326,-1.238 0.404,-0.25 -1.096,-2.974 -4.541,-8.248 -1.534,-2.348 -2.88,-4.508 -2.991,-4.8 -0.186,-0.484 -0.133,-0.484 0.608,0 1.981,1.307 6.285,8.079 7.286,11.464 0.448,1.518 1.032,1.746 2.771,1.084 l 0.851,-0.323 -0.79,-2.076 c -0.433,-1.143 -1.7,-3.922 -2.814,-6.177 -1.971,-3.993 -2.323,-5.003 -1.741,-5.003 0.442,0 2.823,3.565 4.09,6.123 1.236,2.497 2.401,6.268 2.092,6.769 -0.105,0.169 0.06,0.447 0.363,0.617 0.505,0.283 0.486,0.47 -0.242,2.232 l -0.794,1.923 -0.168,-1.136 c -0.162,-1.095 -0.217,-1.134 -1.532,-1.077 -0.751,0.03 -2.657,0.49 -4.234,1.018 -2.391,0.799 -2.913,0.881 -3.132,0.49 -0.212,-0.38 -0.779,-0.209 -2.976,0.896 -3.176,1.596 -9.852,5.518 -10.112,5.94 -0.1,0.16 0.116,1.152 0.478,2.205 0.862,2.506 0.577,2.723 -0.469,0.356 -0.453,-1.024 -0.944,-1.858 -1.09,-1.853 -0.147,0 -0.984,0.534 -1.861,1.178 -1.455,1.067 -1.578,1.261 -1.406,2.226 0.175,0.972 0.162,0.991 -0.158,0.241 -0.192,-0.449 -0.4,-0.867 -0.463,-0.93 -0.07,-0.06 -1.396,0.672 -2.964,1.634 l -2.849,1.749 -0.04,2.326 -0.04,2.326 -0.326,-1.821 c -0.179,-1.001 -0.362,-1.86 -0.407,-1.909 -0.05,-0.05 -2.599,1.415 -5.675,3.252 -10.186,6.081 -20.204,10.452 -32.241,14.07 -5.347,1.607 -6.776,2.155 -6.74,2.582 0.06,0.669 -0.189,0.692 -0.672,0.06 -0.314,-0.41 -0.736,-0.335 -2.932,0.521 -1.411,0.549 -2.565,1.114 -2.565,1.254 0,0.14 0.298,1.122 0.662,2.182 0.76,2.209 0.695,2.754 -0.109,0.911 z m -93.271,-6.311 c -5.107,-4.747 -11.154,-9.878 -13.181,-11.184 -3.464,-2.232 -2.066,-3.043 1.554,-0.901 2.939,1.738 7.511,5.834 11.076,9.92 1.687,1.935 3.262,3.795 3.501,4.134 0.922,1.313 -0.289,0.505 -2.95,-1.969 z m 104.148,-6.694 c -3.167,-4.315 -5.294,-6.706 -13.434,-15.099 -3.996,-4.12 -7.265,-7.625 -7.265,-7.788 0,-0.562 1.273,0.387 4.688,3.494 6.409,5.83 11.057,11.033 14.758,16.519 4.304,6.376 5.005,7.986 1.253,2.874 z m -128.139,-0.264 c -2.351,-1.606 -5.413,-3.741 -6.802,-4.745 -1.389,-1.004 -4.327,-2.848 -6.528,-4.097 -4.734,-2.687 -8.682,-5.495 -8.029,-5.712 0.627,-0.21 7.736,3.409 12.076,6.148 5.234,3.302 14.257,10.629 13.734,11.152 -0.09,0.1 -2.099,-1.14 -4.451,-2.746 z m -15.034,-0.427 c -1.548,-1.096 -5.835,-3.882 -9.526,-6.19 -6.71,-4.196 -9.708,-6.408 -9.281,-6.846 0.596,-0.612 9.221,4.382 15.534,8.993 3.967,2.898 7.422,6.08 6.571,6.052 -0.267,-0.01 -1.751,-0.912 -3.298,-2.009 z m 107.09,1.045 c -0.123,-0.199 -2.373,-2.156 -4.999,-4.35 -4.339,-3.622 -5.951,-5.262 -5.173,-5.262 1.491,0 11.286,9.084 10.568,9.802 -0.1,0.1 -0.272,0.01 -0.396,-0.19 z m 25.621,-6.054 c -7.852,-9.576 -23.655,-23.75 -35.725,-32.041 -5.321,-3.655 -7.557,-5.439 -7.232,-5.769 0.598,-0.607 10.836,5.881 16.601,10.522 7.881,6.345 16.322,14.471 22.138,21.313 3.217,3.783 7.74,9.699 7.416,9.699 -0.07,0 -1.519,-1.676 -3.198,-3.724 z m -53.189,0.717 c -5.121,-3.102 -13.741,-8.985 -13.903,-9.489 -0.597,-1.848 7.156,2.649 14.19,8.231 5.007,3.975 4.909,4.406 -0.287,1.258 z m 40.469,-8.286 c -5.415,-4.517 -18.107,-14.016 -24.246,-18.147 -2.777,-1.868 -5.048,-3.531 -5.048,-3.694 0,-1.486 8.99,3.912 17.262,10.364 4.418,3.447 16.913,14.898 16.156,14.807 -0.08,-0.01 -1.939,-1.508 -4.124,-3.33 z m -16.571,1.001 c -3.398,-2.317 -5.222,-3.755 -7.675,-6.051 -1.683,-1.577 -2.082,-2.194 -1.417,-2.194 0.983,0 13.335,10.204 12.402,10.246 -0.193,0.01 -1.683,-0.892 -3.31,-2.001 z m 63.752,0.05 c -3.279,-6.496 -12.434,-19.587 -18.461,-26.399 -1.581,-1.787 -5.636,-6.005 -9.011,-9.373 -5.808,-5.794 -8.336,-8.937 -7.192,-8.937 0.564,0 9.952,8.73 14.523,13.506 5.116,5.344 9.178,10.843 14.582,19.741 2.964,4.881 7.101,12.976 6.789,13.287 -0.112,0.113 -0.666,-0.708 -1.23,-1.825 z m -106.264,-1.406 c -3.161,-1.62 -5.911,-3.877 -4.753,-3.899 1.271,-0.02 8.392,4.188 8.392,4.964 0,0.595 -0.936,0.321 -3.639,-1.065 z m 109.891,-4.509 c -3.236,-5.517 -6.204,-9.408 -11.793,-15.464 -8.018,-8.686 -8.384,-9.109 -10.06,-11.594 -3.102,-4.597 -2.24,-3.854 5.782,4.98 7.991,8.798 9.226,10.294 12.179,14.748 2.622,3.952 6.728,11.162 6.493,11.397 -0.08,0.08 -1.246,-1.755 -2.601,-4.067 z m -23.041,-0.754 c -4.692,-5.767 -7.411,-9.35 -7.232,-9.53 0.08,-0.08 0.55,0.205 1.03,0.645 2.012,1.845 9.983,12.396 9.631,12.748 -0.08,0.09 -1.63,-1.652 -3.429,-3.863 z m 28.476,0.961 c -1.399,-2.786 -4.636,-7.833 -8.081,-12.603 -0.757,-1.047 -1.23,-1.903 -1.051,-1.903 0.658,0 4.908,4.957 6.448,7.522 2.015,3.355 4.903,10.022 4.341,10.022 -0.07,0 -0.818,-1.368 -1.657,-3.038 z m -100.267,1.31 c -0.728,-0.388 -4.005,-1.953 -7.282,-3.478 -6.303,-2.935 -7.172,-3.478 -6.553,-4.097 0.798,-0.797 5.696,1.444 12.017,5.498 2.183,1.4 3.97,2.605 3.97,2.678 0,0.312 -0.92,0.06 -2.152,-0.601 z m 58.589,-10.905 c -7.683,-7.418 -12.493,-11.87 -20.813,-19.266 -1.406,-1.25 -2.481,-2.348 -2.39,-2.44 0.575,-0.574 6.013,3.63 12.683,9.804 6.787,6.283 20.127,20.317 19.221,20.221 -0.06,-0.01 -3.968,-3.749 -8.701,-8.319 z m -4.303,3.91 c -5.233,-4.241 -20.402,-15.551 -23.998,-17.894 -8.263,-5.384 -9.6,-6.296 -9.6,-6.549 0,-0.465 0.627,-0.294 2.636,0.72 5.904,2.981 17.126,10.609 22.852,15.534 5.126,4.409 11.722,10.665 11.188,10.612 -0.06,-0.01 -1.439,-1.096 -3.078,-2.423 z m -38.729,-2.319 c -4.86,-3.026 -8.731,-5.969 -8.032,-6.106 0.825,-0.161 3.238,1.242 7.04,4.092 3.414,2.56 5.191,4.134 4.626,4.097 -0.178,-0.01 -1.812,-0.949 -3.634,-2.083 z m 105.235,-3.606 c -1.047,-1.502 -4.23,-5.859 -7.074,-9.682 -2.843,-3.823 -5.529,-7.472 -5.966,-8.11 l -0.795,-1.158 0.772,0.662 c 1.579,1.353 9.602,11.465 11.337,14.288 2.389,3.886 3.991,6.731 3.792,6.731 -0.09,0 -1.019,-1.229 -2.066,-2.731 z m 3.133,-2.788 c -0.781,-1.061 -2.582,-3.389 -4,-5.173 -2.427,-3.051 -2.924,-3.875 -2.333,-3.87 0.592,0.01 3.523,2.874 4.684,4.585 1.474,2.174 3.458,6.001 3.229,6.23 -0.08,0.09 -0.798,-0.711 -1.58,-1.772 z m 19.754,-2.135 c -0.521,-1.343 -1.296,-3.144 -1.724,-4.003 -0.914,-1.833 -0.967,-2.151 -0.258,-1.563 0.722,0.599 1.62,2.44 2.463,5.049 1,3.095 0.659,3.461 -0.481,0.517 z m -81.748,-1.532 c -4.626,-4.798 -8.842,-10.085 -8.396,-10.53 0.31,-0.31 4.191,3.826 7.75,8.261 5.259,6.551 5.462,7.266 0.646,2.269 z m 8.077,-1.013 c -1.78,-1.815 -6.882,-6.153 -11.75,-9.992 -8.152,-6.427 -13.948,-11.485 -13.582,-11.851 0.211,-0.211 2.545,1.34 8.159,5.416 8.063,5.856 14.47,11.444 17.565,15.32 1.627,2.038 3.186,4.412 2.845,4.334 -0.05,-0.01 -1.507,-1.464 -3.237,-3.227 z m -17.026,-3.069 c -5.231,-4.946 -9.198,-8.183 -16.075,-13.117 -3.24,-2.325 -5.627,-4.454 -5.627,-5.021 0,-0.215 0.226,-0.478 0.502,-0.584 0.532,-0.204 2.843,1.431 9.595,6.792 5.41,4.297 18.589,17.286 17.493,17.243 -0.155,-0.01 -2.804,-2.397 -5.888,-5.313 z m 55.059,1.792 c -7.927,-11.771 -20.234,-25.337 -33.233,-36.63 -1.487,-1.292 -0.346,-1.092 2.043,0.359 6.55,3.977 16.24,13.952 25.321,26.066 4.482,5.978 8.272,12.14 7.775,12.638 -0.08,0.09 -0.945,-1.007 -1.906,-2.433 z m -25.346,-8.282 c -1.789,-1.947 -5.188,-5.603 -7.556,-8.125 -5.342,-5.694 -6.294,-6.813 -6.02,-7.087 0.286,-0.285 5.743,5.07 9.831,9.648 2.882,3.227 7.278,8.651 7.278,8.981 0,0.36 -0.567,-0.189 -3.533,-3.417 z m 51.727,-2.081 c -0.672,-1.088 -2.117,-3.188 -3.214,-4.667 -1.096,-1.478 -1.918,-2.763 -1.826,-2.854 0.09,-0.09 0.914,0.533 1.828,1.388 1.157,1.082 2.175,2.552 3.346,4.833 1.859,3.619 1.779,4.399 -0.134,1.3 z m -26.112,-5.888 c -6.661,-7.01 -10.319,-11.294 -9.95,-11.652 0.313,-0.303 9.414,9.272 13.334,14.029 2.055,2.494 3.672,4.598 3.594,4.676 -0.08,0.08 -3.218,-3.096 -6.978,-7.053 z m 19.473,4.033 c -0.315,-0.482 -2.83,-3.181 -5.589,-5.999 -2.758,-2.818 -5.064,-5.334 -5.123,-5.59 -0.337,-1.469 2.674,0.634 6.088,4.251 2.365,2.506 5.78,7.631 5.362,8.048 -0.09,0.09 -0.422,-0.229 -0.738,-0.71 z m -33.279,-12.673 c -4.461,-4.526 -9.6,-9.418 -11.42,-10.872 -4.029,-3.216 -4.428,-3.646 -3.657,-3.942 1.291,-0.495 9.892,6.657 15.273,12.7 3.744,4.204 8.516,10.349 8.035,10.344 -0.07,0 -3.771,-3.704 -8.231,-8.23 z m -12.776,4.216 c -0.764,-0.854 -9.398,-8.978 -12.354,-11.625 -2.192,-1.963 -2.466,-2.807 -0.581,-1.792 2.181,1.175 10.645,9.636 13.131,13.128 0.822,1.154 0.717,1.309 -0.196,0.289 z m -96.754,143.878 c 2.546,-3.571 5.908,-7.19 9.119,-9.816 3.756,-3.071 11.196,-7.907 15.341,-9.972 7.768,-3.869 13.781,-5.534 27.64,-7.655 0.546,-0.08 -1.614,-0.107 -4.8,-0.05 -6.126,0.105 -12.074,0.984 -17.058,2.52 -7.556,2.33 -16.092,7.971 -23.998,15.861 -6.495,6.48 -11.738,14.833 -12.679,20.193 -0.122,0.702 0.689,-0.669 2.058,-3.475 1.243,-2.549 3.213,-5.97 4.377,-7.603 z m -40.535,9.189 c -1.897,-3.767 -4.969,-8.074 -8.171,-11.458 -5.128,-5.418 -12.946,-11.5 -18.799,-14.623 -2.046,-1.092 -3.487,-2.035 -3.2,-2.096 0.764,-0.16 7.874,3.468 10.577,5.399 1.283,0.915 3.821,2.655 5.641,3.866 1.821,1.21 4.875,3.536 6.786,5.168 4.631,3.952 7.302,7.314 10.258,12.909 0.602,1.141 1.16,2.009 1.24,1.93 0.282,-0.283 -3.332,-6.897 -5.165,-9.452 -5.001,-6.969 -12.818,-14.427 -17.789,-16.973 -2.85,-1.459 -3.364,-2.493 -0.641,-1.288 3.288,1.454 12.354,7.197 12.704,8.048 0.07,0.147 0.264,0.268 0.45,0.268 0.188,0 -1.202,-1.665 -3.088,-3.7 -2.853,-3.076 -6.069,-5.99 -13.486,-12.215 -1.42,-1.193 -0.439,-1.082 2.35,0.265 5.035,2.432 10.686,6.463 14.461,10.314 3.592,3.665 3.635,3.358 0.158,-1.119 -2.608,-3.358 -7.555,-8.424 -10.554,-10.81 -1.275,-1.013 -4.01,-3.259 -6.079,-4.99 -2.275,-1.905 -5.413,-4.101 -7.943,-5.562 -2.302,-1.327 -5.376,-3.112 -6.832,-3.966 -3.13,-1.836 -4.391,-2.535 -12.212,-6.767 -3.258,-1.762 -6.276,-3.436 -6.709,-3.719 -0.614,-0.402 -0.747,-0.415 -0.608,-0.06 0.1,0.25 1.626,1.338 3.398,2.418 4.797,2.922 25.606,16.809 25.439,16.976 -0.08,0.08 -3.911,-1.799 -8.515,-4.175 -4.604,-2.375 -8.421,-4.268 -8.482,-4.206 -0.06,0.06 0.973,0.753 2.299,1.536 4,2.364 9.16,5.898 12.837,8.791 3.545,2.789 6.542,5.62 6.254,5.907 -0.08,0.09 -1.345,-0.842 -2.793,-2.066 -1.448,-1.225 -3.229,-2.688 -3.957,-3.252 -1.738,-1.345 -10.594,-6.625 -17.047,-10.162 -2.822,-1.547 -6.669,-3.711 -8.548,-4.809 -1.88,-1.098 -3.261,-1.807 -3.07,-1.577 0.366,0.44 4.545,3.052 10.129,6.329 1.82,1.069 5.096,3.153 7.282,4.632 2.184,1.478 4.94,3.264 6.123,3.968 3.172,1.888 10.499,6.776 10.925,7.289 0.368,0.445 -5.433,-2.659 -12.58,-6.731 -2.093,-1.192 -5.892,-3.307 -8.441,-4.7 -2.548,-1.392 -6.793,-3.868 -9.434,-5.501 -6.005,-3.715 -5.627,-3.492 -5.627,-3.318 0,0.08 1.602,1.229 3.558,2.55 5.269,3.558 15.62,10.943 15.842,11.301 0.611,0.989 -10.141,-5.034 -16.172,-9.059 -2.139,-1.428 -3.889,-2.531 -3.889,-2.452 0,0.273 9.433,6.753 13.495,9.272 2.234,1.385 7.149,4.172 10.923,6.195 6.109,3.274 11.574,6.616 13.979,8.548 1.586,1.274 0.06,0.669 -2.18,-0.865 -3.583,-2.454 -5.84,-3.636 -12.55,-6.575 -10.461,-4.581 -18.98,-9.314 -24.33,-13.515 -1.183,-0.93 -1.945,-1.429 -1.691,-1.11 0.859,1.084 7.463,5.725 14.435,10.144 3.824,2.424 9.41,6.004 12.413,7.956 3.005,1.952 6.058,3.898 6.786,4.323 2.349,1.371 9.179,5.992 12.413,8.395 3.81,2.834 10.798,9.712 13.319,13.111 1.012,1.366 2.543,3.646 3.4,5.067 0.858,1.422 1.626,2.517 1.71,2.434 0.08,-0.08 -0.369,-1.18 -1.002,-2.439 z m -9.664,-16.694 c -1.448,-1.118 -3.295,-2.459 -4.104,-2.979 -1.116,-0.718 -1.303,-0.946 -0.773,-0.946 0.761,0 5.299,3.255 6.858,4.92 0.535,0.571 0.9,1.038 0.813,1.038 -0.08,0 -1.346,-0.915 -2.794,-2.033 z m 320.067,5.018 c 2.023,-0.872 4.646,-2.035 5.83,-2.586 4.564,-2.122 8.843,-3.984 10.51,-4.574 0.956,-0.338 1.737,-0.818 1.737,-1.067 0,-0.957 2.412,-2.725 9.434,-6.917 8.585,-5.126 11.348,-7.04 4.741,-3.286 -0.851,0.484 -4.575,2.388 -8.275,4.233 -3.7,1.844 -8.738,4.645 -11.196,6.225 -5.777,3.714 -8.926,5.505 -13.589,7.731 -2.084,0.995 -4.087,2.057 -4.451,2.362 -0.62,0.518 -0.59,0.518 0.46,0.01 0.616,-0.3 2.776,-1.258 4.799,-2.13 z m -314.646,-8.364 c -2.176,-3.066 -8.184,-8.528 -11.364,-10.329 -0.984,-0.557 -0.985,-0.557 -0.175,0.04 1.833,1.357 6.638,5.718 9.278,8.422 1.548,1.585 2.861,2.895 2.919,2.911 0.06,0.02 -0.238,-0.454 -0.658,-1.046 z m -2.928,-9.524 c -0.85,-1.194 -5.387,-6.023 -7.939,-8.449 -5.286,-5.027 -12.229,-10.223 -16.554,-12.391 -1.923,-0.964 -9.369,-5.211 -14.23,-8.117 -3.487,-2.085 -10.072,-5.469 -10.414,-5.352 -0.189,0.07 0.55,0.682 1.642,1.372 4.563,2.884 9.875,6.227 14.068,8.855 10.391,6.513 13.273,8.429 19.14,12.727 7.008,5.133 10.344,7.838 12.957,10.508 0.995,1.016 1.861,1.847 1.926,1.847 0.07,0 -0.204,-0.45 -0.596,-1 z m 0.951,-4.213 c -3.924,-6.378 -8.588,-11.755 -14.03,-16.172 -3.993,-3.243 -24.58,-16.858 -22.83,-15.1 0.182,0.183 4.129,3.125 8.772,6.538 9.528,7.005 10.21,7.544 15.736,12.444 4.315,3.827 6.632,6.205 10.385,10.661 1.329,1.579 2.488,2.87 2.574,2.87 0.08,0 -0.188,-0.558 -0.607,-1.241 z m -6.14,-3.113 c -1.55,-2.707 -10.106,-10.336 -16.72,-14.909 -4.386,-3.031 -4.553,-2.887 -0.588,0.508 l 1.483,1.27 -1.524,-1.105 c -0.838,-0.608 -2.367,-1.785 -3.398,-2.616 -2.094,-1.687 -8.758,-5.775 -16.263,-9.973 -2.73,-1.528 -5.406,-3.07 -5.945,-3.426 -0.539,-0.356 -0.873,-0.474 -0.742,-0.261 0.13,0.212 1.466,1.09 2.966,1.951 6.489,3.721 23.131,14.429 27.592,17.754 2.071,1.544 7.478,6.239 12.02,10.437 0.832,0.769 1.56,1.402 1.615,1.406 0.06,0 -0.167,-0.462 -0.496,-1.036 z m -52.733,-8.669 c 0,-0.06 -0.335,-0.398 -0.745,-0.745 l -0.744,-0.631 0.63,0.745 c 0.593,0.7 0.859,0.896 0.859,0.631 z m 19.861,-4.346 c 0,-0.09 -0.447,-0.388 -0.993,-0.671 -1.245,-0.644 -1.32,-0.364 -0.08,0.307 1.04,0.565 1.076,0.577 1.076,0.364 z m -2.318,-1.292 c 0,-0.107 -6.872,-4.333 -7.778,-4.782 -1.195,-0.593 0.676,0.674 3.863,2.614 3.839,2.339 3.915,2.382 3.915,2.168 z m 22.327,-4.814 c -0.172,-0.168 -1.225,-1.024 -2.338,-1.904 -1.114,-0.879 -3.497,-2.795 -5.297,-4.257 -8.233,-6.692 -14.063,-10.708 -20.48,-14.107 -2.883,-1.528 -4.087,-2.352 -4.404,-3.014 -0.367,-0.766 -0.579,-0.877 -1.329,-0.696 -1.397,0.338 -2.487,0.785 -2.32,0.951 0.08,0.08 2.003,1.101 4.266,2.261 6.366,3.264 16.638,9.934 25.3,16.43 3.956,2.965 6.393,4.636 6.768,4.639 0.08,0 0,-0.136 -0.166,-0.303 z m -23.833,-9.921 c -0.76,-0.714 -6.865,-4.683 -6.998,-4.551 -0.09,0.08 1.464,1.204 3.434,2.495 3.37,2.209 4.299,2.745 3.564,2.056 z m 21.35,-4.208 c -1.494,-1.562 -5.476,-4.675 -10.409,-8.135 -6.154,-4.318 -6.706,-4.453 -0.994,-0.244 3.96,2.917 9.124,6.953 10.842,8.473 1.65,1.46 1.992,1.402 0.561,-0.09 z m -21.829,-15.511 c 0,-0.08 -0.335,-0.317 -0.745,-0.515 -0.715,-0.347 -0.72,-0.341 -0.102,0.154 0.675,0.541 0.847,0.614 0.847,0.361 z m -2.234,-1.426 c -1.415,-1.087 -4.249,-2.548 -3.745,-1.931 0.405,0.496 3.825,2.468 4.324,2.494 0.09,0.01 -0.17,-0.249 -0.579,-0.563 z m -6.372,-8.109 c -1.184,-1.134 -3.279,-2.972 -4.655,-4.085 -2.171,-1.753 -3.268,-3.036 -4.799,-5.612 -0.315,-0.528 -0.432,-0.46 -1.116,0.647 -0.981,1.586 -0.768,3.251 0.59,4.608 0.732,0.732 11.072,6.33 11.965,6.478 0.09,0.01 -0.802,-0.901 -1.985,-2.036 z" id="path46"/></g></svg>